<svg xmlns="http://www.w3.org/2000/svg" width="1080" height="1350" viewBox="0 0 1080 1350">
<defs>
  <linearGradient id="fadeBottom" x1="0" x2="0" y1="0" y2="1">
    <stop offset="0%" stop-color="#000000" stop-opacity="0"/>
    <stop offset="58%" stop-color="#000000" stop-opacity=".12"/>
    <stop offset="100%" stop-color="#000000" stop-opacity=".82"/>
  </linearGradient>
  <filter id="softShadow" x="-20%" y="-20%" width="140%" height="140%">
    <feDropShadow dx="0" dy="18" stdDeviation="24" flood-color="#020617" flood-opacity="0.18"/>
  </filter>
</defs>
<rect width="1080" height="1350" fill="#f5fbf7"/>
<rect width="1080" height="1350" fill="#062418"/>
<g transform="translate(60 120) rotate(-18)" opacity="0.82">
  <rect x="-48" y="-34" width="96" height="68" rx="18" fill="#05c46b" opacity=".72"/>
  <circle cx="-18" cy="0" r="13" fill="#fff" opacity=".8"/>
  <circle cx="20" cy="0" r="13" fill="#fff" opacity=".8"/>
</g><g transform="translate(250 120) rotate(-9)" opacity="0.82">
  <rect x="-48" y="-34" width="96" height="68" rx="18" fill="#2563eb" opacity=".72"/>
  <circle cx="-18" cy="0" r="13" fill="#fff" opacity=".8"/>
  <circle cx="20" cy="0" r="13" fill="#fff" opacity=".8"/>
</g><g transform="translate(440 120) rotate(0)" opacity="0.82">
  <rect x="-48" y="-34" width="96" height="68" rx="18" fill="#ffffff" opacity=".72"/>
  <circle cx="-18" cy="0" r="13" fill="#fff" opacity=".8"/>
  <circle cx="20" cy="0" r="13" fill="#fff" opacity=".8"/>
</g><g transform="translate(630 120) rotate(9)" opacity="0.82">
  <rect x="-48" y="-34" width="96" height="68" rx="18" fill="#05c46b" opacity=".72"/>
  <circle cx="-18" cy="0" r="13" fill="#fff" opacity=".8"/>
  <circle cx="20" cy="0" r="13" fill="#fff" opacity=".8"/>
</g><g transform="translate(820 120) rotate(18)" opacity="0.82">
  <rect x="-48" y="-34" width="96" height="68" rx="18" fill="#2563eb" opacity=".72"/>
  <circle cx="-18" cy="0" r="13" fill="#fff" opacity=".8"/>
  <circle cx="20" cy="0" r="13" fill="#fff" opacity=".8"/>
</g><g transform="translate(1010 120) rotate(-18)" opacity="0.82">
  <rect x="-48" y="-34" width="96" height="68" rx="18" fill="#ffffff" opacity=".72"/>
  <circle cx="-18" cy="0" r="13" fill="#fff" opacity=".8"/>
  <circle cx="20" cy="0" r="13" fill="#fff" opacity=".8"/>
</g><g transform="translate(102 270) rotate(-9)" opacity="0.82">
  <rect x="-48" y="-34" width="96" height="68" rx="18" fill="#05c46b" opacity=".72"/>
  <circle cx="-18" cy="0" r="13" fill="#fff" opacity=".8"/>
  <circle cx="20" cy="0" r="13" fill="#fff" opacity=".8"/>
</g><g transform="translate(292 270) rotate(0)" opacity="0.82">
  <rect x="-48" y="-34" width="96" height="68" rx="18" fill="#2563eb" opacity=".72"/>
  <circle cx="-18" cy="0" r="13" fill="#fff" opacity=".8"/>
  <circle cx="20" cy="0" r="13" fill="#fff" opacity=".8"/>
</g><g transform="translate(482 270) rotate(9)" opacity="0.82">
  <rect x="-48" y="-34" width="96" height="68" rx="18" fill="#ffffff" opacity=".72"/>
  <circle cx="-18" cy="0" r="13" fill="#fff" opacity=".8"/>
  <circle cx="20" cy="0" r="13" fill="#fff" opacity=".8"/>
</g><g transform="translate(672 270) rotate(18)" opacity="0.82">
  <rect x="-48" y="-34" width="96" height="68" rx="18" fill="#05c46b" opacity=".72"/>
  <circle cx="-18" cy="0" r="13" fill="#fff" opacity=".8"/>
  <circle cx="20" cy="0" r="13" fill="#fff" opacity=".8"/>
</g><g transform="translate(862 270) rotate(-18)" opacity="0.82">
  <rect x="-48" y="-34" width="96" height="68" rx="18" fill="#2563eb" opacity=".72"/>
  <circle cx="-18" cy="0" r="13" fill="#fff" opacity=".8"/>
  <circle cx="20" cy="0" r="13" fill="#fff" opacity=".8"/>
</g><g transform="translate(1052 270) rotate(-9)" opacity="0.82">
  <rect x="-48" y="-34" width="96" height="68" rx="18" fill="#ffffff" opacity=".72"/>
  <circle cx="-18" cy="0" r="13" fill="#fff" opacity=".8"/>
  <circle cx="20" cy="0" r="13" fill="#fff" opacity=".8"/>
</g><g transform="translate(60 420) rotate(0)" opacity="0.82">
  <rect x="-48" y="-34" width="96" height="68" rx="18" fill="#05c46b" opacity=".72"/>
  <circle cx="-18" cy="0" r="13" fill="#fff" opacity=".8"/>
  <circle cx="20" cy="0" r="13" fill="#fff" opacity=".8"/>
</g><g transform="translate(250 420) rotate(9)" opacity="0.82">
  <rect x="-48" y="-34" width="96" height="68" rx="18" fill="#2563eb" opacity=".72"/>
  <circle cx="-18" cy="0" r="13" fill="#fff" opacity=".8"/>
  <circle cx="20" cy="0" r="13" fill="#fff" opacity=".8"/>
</g><g transform="translate(440 420) rotate(18)" opacity="0.82">
  <rect x="-48" y="-34" width="96" height="68" rx="18" fill="#ffffff" opacity=".72"/>
  <circle cx="-18" cy="0" r="13" fill="#fff" opacity=".8"/>
  <circle cx="20" cy="0" r="13" fill="#fff" opacity=".8"/>
</g><g transform="translate(630 420) rotate(-18)" opacity="0.82">
  <rect x="-48" y="-34" width="96" height="68" rx="18" fill="#05c46b" opacity=".72"/>
  <circle cx="-18" cy="0" r="13" fill="#fff" opacity=".8"/>
  <circle cx="20" cy="0" r="13" fill="#fff" opacity=".8"/>
</g><g transform="translate(820 420) rotate(-9)" opacity="0.82">
  <rect x="-48" y="-34" width="96" height="68" rx="18" fill="#2563eb" opacity=".72"/>
  <circle cx="-18" cy="0" r="13" fill="#fff" opacity=".8"/>
  <circle cx="20" cy="0" r="13" fill="#fff" opacity=".8"/>
</g><g transform="translate(1010 420) rotate(0)" opacity="0.82">
  <rect x="-48" y="-34" width="96" height="68" rx="18" fill="#ffffff" opacity=".72"/>
  <circle cx="-18" cy="0" r="13" fill="#fff" opacity=".8"/>
  <circle cx="20" cy="0" r="13" fill="#fff" opacity=".8"/>
</g><g transform="translate(102 570) rotate(9)" opacity="0.82">
  <rect x="-48" y="-34" width="96" height="68" rx="18" fill="#05c46b" opacity=".72"/>
  <circle cx="-18" cy="0" r="13" fill="#fff" opacity=".8"/>
  <circle cx="20" cy="0" r="13" fill="#fff" opacity=".8"/>
</g><g transform="translate(292 570) rotate(18)" opacity="0.82">
  <rect x="-48" y="-34" width="96" height="68" rx="18" fill="#2563eb" opacity=".72"/>
  <circle cx="-18" cy="0" r="13" fill="#fff" opacity=".8"/>
  <circle cx="20" cy="0" r="13" fill="#fff" opacity=".8"/>
</g><g transform="translate(482 570) rotate(-18)" opacity="0.82">
  <rect x="-48" y="-34" width="96" height="68" rx="18" fill="#ffffff" opacity=".72"/>
  <circle cx="-18" cy="0" r="13" fill="#fff" opacity=".8"/>
  <circle cx="20" cy="0" r="13" fill="#fff" opacity=".8"/>
</g><g transform="translate(672 570) rotate(-9)" opacity="0.82">
  <rect x="-48" y="-34" width="96" height="68" rx="18" fill="#05c46b" opacity=".72"/>
  <circle cx="-18" cy="0" r="13" fill="#fff" opacity=".8"/>
  <circle cx="20" cy="0" r="13" fill="#fff" opacity=".8"/>
</g><g transform="translate(862 570) rotate(0)" opacity="0.82">
  <rect x="-48" y="-34" width="96" height="68" rx="18" fill="#2563eb" opacity=".72"/>
  <circle cx="-18" cy="0" r="13" fill="#fff" opacity=".8"/>
  <circle cx="20" cy="0" r="13" fill="#fff" opacity=".8"/>
</g><g transform="translate(1052 570) rotate(9)" opacity="0.82">
  <rect x="-48" y="-34" width="96" height="68" rx="18" fill="#ffffff" opacity=".72"/>
  <circle cx="-18" cy="0" r="13" fill="#fff" opacity=".8"/>
  <circle cx="20" cy="0" r="13" fill="#fff" opacity=".8"/>
</g><g transform="translate(60 720) rotate(18)" opacity="0.82">
  <rect x="-48" y="-34" width="96" height="68" rx="18" fill="#05c46b" opacity=".72"/>
  <circle cx="-18" cy="0" r="13" fill="#fff" opacity=".8"/>
  <circle cx="20" cy="0" r="13" fill="#fff" opacity=".8"/>
</g><g transform="translate(250 720) rotate(-18)" opacity="0.82">
  <rect x="-48" y="-34" width="96" height="68" rx="18" fill="#2563eb" opacity=".72"/>
  <circle cx="-18" cy="0" r="13" fill="#fff" opacity=".8"/>
  <circle cx="20" cy="0" r="13" fill="#fff" opacity=".8"/>
</g><g transform="translate(440 720) rotate(-9)" opacity="0.82">
  <rect x="-48" y="-34" width="96" height="68" rx="18" fill="#ffffff" opacity=".72"/>
  <circle cx="-18" cy="0" r="13" fill="#fff" opacity=".8"/>
  <circle cx="20" cy="0" r="13" fill="#fff" opacity=".8"/>
</g><g transform="translate(630 720) rotate(0)" opacity="0.82">
  <rect x="-48" y="-34" width="96" height="68" rx="18" fill="#05c46b" opacity=".72"/>
  <circle cx="-18" cy="0" r="13" fill="#fff" opacity=".8"/>
  <circle cx="20" cy="0" r="13" fill="#fff" opacity=".8"/>
</g><g transform="translate(820 720) rotate(9)" opacity="0.82">
  <rect x="-48" y="-34" width="96" height="68" rx="18" fill="#2563eb" opacity=".72"/>
  <circle cx="-18" cy="0" r="13" fill="#fff" opacity=".8"/>
  <circle cx="20" cy="0" r="13" fill="#fff" opacity=".8"/>
</g><g transform="translate(1010 720) rotate(18)" opacity="0.82">
  <rect x="-48" y="-34" width="96" height="68" rx="18" fill="#ffffff" opacity=".72"/>
  <circle cx="-18" cy="0" r="13" fill="#fff" opacity=".8"/>
  <circle cx="20" cy="0" r="13" fill="#fff" opacity=".8"/>
</g>
<path d="M0 430 C250 340 380 520 620 410 S900 350 1080 450 L1080 0 L0 0 Z" fill="#ffffff18"/>
<rect width="1080" height="1350" fill="url(#fadeBottom)"/>
<text x="72" y="92" font-family="Pretendard, Noto Sans KR, Apple SD Gothic Neo, Malgun Gothic, Arial, sans-serif" font-size="24" font-weight="900" fill="#ffffffcc">@trlab.insight · 01</text>
<rect x="0" y="620" width="1080" height="730" fill="#000" opacity=".62"/>
<text x="72" y="170" font-family="Pretendard, Noto Sans KR, Apple SD Gothic Neo, Malgun Gothic, Arial, sans-serif" font-size="26" font-weight="900" fill="#05c46b">BRAND SIGNAL</text>
<text x="72" y="760" font-family="Pretendard, Noto Sans KR, Apple SD Gothic Neo, Malgun Gothic, Arial, sans-serif" font-size="88" font-weight="900" fill="#fff">네이버페이,</text><text x="72" y="864" font-family="Pretendard, Noto Sans KR, Apple SD Gothic Neo, Malgun Gothic, Arial, sans-serif" font-size="88" font-weight="900" fill="#fff">해외 QR 결제</text><text x="72" y="968" font-family="Pretendard, Noto Sans KR, Apple SD Gothic Neo, Malgun Gothic, Arial, sans-serif" font-size="88" font-weight="900" fill="#fff">확장</text>
<rect x="72" y="1045" width="170" height="10" rx="2" fill="#05c46b"/>
<text x="72" y="1128" font-family="Pretendard, Noto Sans KR, Apple SD Gothic Neo, Malgun Gothic, Arial, sans-serif" font-size="37" font-weight="900" fill="#fff">결제앱의 경쟁 무대가</text><text x="72" y="1178" font-family="Pretendard, Noto Sans KR, Apple SD Gothic Neo, Malgun Gothic, Arial, sans-serif" font-size="37" font-weight="900" fill="#fff">국내 매장에서 여행 동선으로</text><text x="72" y="1228" font-family="Pretendard, Noto Sans KR, Apple SD Gothic Neo, Malgun Gothic, Arial, sans-serif" font-size="37" font-weight="900" fill="#fff">이동하고 있습니다.</text>
<text x="72" y="1300" font-family="Pretendard, Noto Sans KR, Apple SD Gothic Neo, Malgun Gothic, Arial, sans-serif" font-size="25" font-weight="900" fill="#ffffffc7">마카오 관광청 협업으로 보는 여행 결제 전쟁</text>
</svg>