<svg xmlns="http://www.w3.org/2000/svg" width="1080" height="1350" viewBox="0 0 1080 1350">
<defs>
  <linearGradient id="fadeBottom" x1="0" x2="0" y1="0" y2="1">
    <stop offset="0%" stop-color="#000000" stop-opacity="0"/>
    <stop offset="58%" stop-color="#000000" stop-opacity=".12"/>
    <stop offset="100%" stop-color="#000000" stop-opacity=".82"/>
  </linearGradient>
  <filter id="softShadow" x="-20%" y="-20%" width="140%" height="140%">
    <feDropShadow dx="0" dy="18" stdDeviation="24" flood-color="#020617" flood-opacity="0.18"/>
  </filter>
</defs>
<rect width="1080" height="1350" fill="#f5fbf7"/>
<rect width="1080" height="160" fill="#062418"/>
<g transform="translate(60 120) rotate(-18)" opacity="0.18">
  <rect x="-48" y="-34" width="96" height="68" rx="18" fill="#05c46b" opacity=".72"/>
  <circle cx="-18" cy="0" r="13" fill="#fff" opacity=".8"/>
  <circle cx="20" cy="0" r="13" fill="#fff" opacity=".8"/>
</g><g transform="translate(250 120) rotate(-9)" opacity="0.18">
  <rect x="-48" y="-34" width="96" height="68" rx="18" fill="#2563eb" opacity=".72"/>
  <circle cx="-18" cy="0" r="13" fill="#fff" opacity=".8"/>
  <circle cx="20" cy="0" r="13" fill="#fff" opacity=".8"/>
</g><g transform="translate(440 120) rotate(0)" opacity="0.18">
  <rect x="-48" y="-34" width="96" height="68" rx="18" fill="#ffffff" opacity=".72"/>
  <circle cx="-18" cy="0" r="13" fill="#fff" opacity=".8"/>
  <circle cx="20" cy="0" r="13" fill="#fff" opacity=".8"/>
</g><g transform="translate(630 120) rotate(9)" opacity="0.18">
  <rect x="-48" y="-34" width="96" height="68" rx="18" fill="#05c46b" opacity=".72"/>
  <circle cx="-18" cy="0" r="13" fill="#fff" opacity=".8"/>
  <circle cx="20" cy="0" r="13" fill="#fff" opacity=".8"/>
</g><g transform="translate(820 120) rotate(18)" opacity="0.18">
  <rect x="-48" y="-34" width="96" height="68" rx="18" fill="#2563eb" opacity=".72"/>
  <circle cx="-18" cy="0" r="13" fill="#fff" opacity=".8"/>
  <circle cx="20" cy="0" r="13" fill="#fff" opacity=".8"/>
</g><g transform="translate(1010 120) rotate(-18)" opacity="0.18">
  <rect x="-48" y="-34" width="96" height="68" rx="18" fill="#ffffff" opacity=".72"/>
  <circle cx="-18" cy="0" r="13" fill="#fff" opacity=".8"/>
  <circle cx="20" cy="0" r="13" fill="#fff" opacity=".8"/>
</g><g transform="translate(102 270) rotate(-9)" opacity="0.18">
  <rect x="-48" y="-34" width="96" height="68" rx="18" fill="#05c46b" opacity=".72"/>
  <circle cx="-18" cy="0" r="13" fill="#fff" opacity=".8"/>
  <circle cx="20" cy="0" r="13" fill="#fff" opacity=".8"/>
</g><g transform="translate(292 270) rotate(0)" opacity="0.18">
  <rect x="-48" y="-34" width="96" height="68" rx="18" fill="#2563eb" opacity=".72"/>
  <circle cx="-18" cy="0" r="13" fill="#fff" opacity=".8"/>
  <circle cx="20" cy="0" r="13" fill="#fff" opacity=".8"/>
</g><g transform="translate(482 270) rotate(9)" opacity="0.18">
  <rect x="-48" y="-34" width="96" height="68" rx="18" fill="#ffffff" opacity=".72"/>
  <circle cx="-18" cy="0" r="13" fill="#fff" opacity=".8"/>
  <circle cx="20" cy="0" r="13" fill="#fff" opacity=".8"/>
</g><g transform="translate(672 270) rotate(18)" opacity="0.18">
  <rect x="-48" y="-34" width="96" height="68" rx="18" fill="#05c46b" opacity=".72"/>
  <circle cx="-18" cy="0" r="13" fill="#fff" opacity=".8"/>
  <circle cx="20" cy="0" r="13" fill="#fff" opacity=".8"/>
</g><g transform="translate(862 270) rotate(-18)" opacity="0.18">
  <rect x="-48" y="-34" width="96" height="68" rx="18" fill="#2563eb" opacity=".72"/>
  <circle cx="-18" cy="0" r="13" fill="#fff" opacity=".8"/>
  <circle cx="20" cy="0" r="13" fill="#fff" opacity=".8"/>
</g><g transform="translate(1052 270) rotate(-9)" opacity="0.18">
  <rect x="-48" y="-34" width="96" height="68" rx="18" fill="#ffffff" opacity=".72"/>
  <circle cx="-18" cy="0" r="13" fill="#fff" opacity=".8"/>
  <circle cx="20" cy="0" r="13" fill="#fff" opacity=".8"/>
</g><g transform="translate(60 420) rotate(0)" opacity="0.18">
  <rect x="-48" y="-34" width="96" height="68" rx="18" fill="#05c46b" opacity=".72"/>
  <circle cx="-18" cy="0" r="13" fill="#fff" opacity=".8"/>
  <circle cx="20" cy="0" r="13" fill="#fff" opacity=".8"/>
</g><g transform="translate(250 420) rotate(9)" opacity="0.18">
  <rect x="-48" y="-34" width="96" height="68" rx="18" fill="#2563eb" opacity=".72"/>
  <circle cx="-18" cy="0" r="13" fill="#fff" opacity=".8"/>
  <circle cx="20" cy="0" r="13" fill="#fff" opacity=".8"/>
</g><g transform="translate(440 420) rotate(18)" opacity="0.18">
  <rect x="-48" y="-34" width="96" height="68" rx="18" fill="#ffffff" opacity=".72"/>
  <circle cx="-18" cy="0" r="13" fill="#fff" opacity=".8"/>
  <circle cx="20" cy="0" r="13" fill="#fff" opacity=".8"/>
</g><g transform="translate(630 420) rotate(-18)" opacity="0.18">
  <rect x="-48" y="-34" width="96" height="68" rx="18" fill="#05c46b" opacity=".72"/>
  <circle cx="-18" cy="0" r="13" fill="#fff" opacity=".8"/>
  <circle cx="20" cy="0" r="13" fill="#fff" opacity=".8"/>
</g><g transform="translate(820 420) rotate(-9)" opacity="0.18">
  <rect x="-48" y="-34" width="96" height="68" rx="18" fill="#2563eb" opacity=".72"/>
  <circle cx="-18" cy="0" r="13" fill="#fff" opacity=".8"/>
  <circle cx="20" cy="0" r="13" fill="#fff" opacity=".8"/>
</g><g transform="translate(1010 420) rotate(0)" opacity="0.18">
  <rect x="-48" y="-34" width="96" height="68" rx="18" fill="#ffffff" opacity=".72"/>
  <circle cx="-18" cy="0" r="13" fill="#fff" opacity=".8"/>
  <circle cx="20" cy="0" r="13" fill="#fff" opacity=".8"/>
</g><g transform="translate(102 570) rotate(9)" opacity="0.18">
  <rect x="-48" y="-34" width="96" height="68" rx="18" fill="#05c46b" opacity=".72"/>
  <circle cx="-18" cy="0" r="13" fill="#fff" opacity=".8"/>
  <circle cx="20" cy="0" r="13" fill="#fff" opacity=".8"/>
</g><g transform="translate(292 570) rotate(18)" opacity="0.18">
  <rect x="-48" y="-34" width="96" height="68" rx="18" fill="#2563eb" opacity=".72"/>
  <circle cx="-18" cy="0" r="13" fill="#fff" opacity=".8"/>
  <circle cx="20" cy="0" r="13" fill="#fff" opacity=".8"/>
</g><g transform="translate(482 570) rotate(-18)" opacity="0.18">
  <rect x="-48" y="-34" width="96" height="68" rx="18" fill="#ffffff" opacity=".72"/>
  <circle cx="-18" cy="0" r="13" fill="#fff" opacity=".8"/>
  <circle cx="20" cy="0" r="13" fill="#fff" opacity=".8"/>
</g><g transform="translate(672 570) rotate(-9)" opacity="0.18">
  <rect x="-48" y="-34" width="96" height="68" rx="18" fill="#05c46b" opacity=".72"/>
  <circle cx="-18" cy="0" r="13" fill="#fff" opacity=".8"/>
  <circle cx="20" cy="0" r="13" fill="#fff" opacity=".8"/>
</g><g transform="translate(862 570) rotate(0)" opacity="0.18">
  <rect x="-48" y="-34" width="96" height="68" rx="18" fill="#2563eb" opacity=".72"/>
  <circle cx="-18" cy="0" r="13" fill="#fff" opacity=".8"/>
  <circle cx="20" cy="0" r="13" fill="#fff" opacity=".8"/>
</g><g transform="translate(1052 570) rotate(9)" opacity="0.18">
  <rect x="-48" y="-34" width="96" height="68" rx="18" fill="#ffffff" opacity=".72"/>
  <circle cx="-18" cy="0" r="13" fill="#fff" opacity=".8"/>
  <circle cx="20" cy="0" r="13" fill="#fff" opacity=".8"/>
</g><g transform="translate(60 720) rotate(18)" opacity="0.18">
  <rect x="-48" y="-34" width="96" height="68" rx="18" fill="#05c46b" opacity=".72"/>
  <circle cx="-18" cy="0" r="13" fill="#fff" opacity=".8"/>
  <circle cx="20" cy="0" r="13" fill="#fff" opacity=".8"/>
</g><g transform="translate(250 720) rotate(-18)" opacity="0.18">
  <rect x="-48" y="-34" width="96" height="68" rx="18" fill="#2563eb" opacity=".72"/>
  <circle cx="-18" cy="0" r="13" fill="#fff" opacity=".8"/>
  <circle cx="20" cy="0" r="13" fill="#fff" opacity=".8"/>
</g><g transform="translate(440 720) rotate(-9)" opacity="0.18">
  <rect x="-48" y="-34" width="96" height="68" rx="18" fill="#ffffff" opacity=".72"/>
  <circle cx="-18" cy="0" r="13" fill="#fff" opacity=".8"/>
  <circle cx="20" cy="0" r="13" fill="#fff" opacity=".8"/>
</g><g transform="translate(630 720) rotate(0)" opacity="0.18">
  <rect x="-48" y="-34" width="96" height="68" rx="18" fill="#05c46b" opacity=".72"/>
  <circle cx="-18" cy="0" r="13" fill="#fff" opacity=".8"/>
  <circle cx="20" cy="0" r="13" fill="#fff" opacity=".8"/>
</g><g transform="translate(820 720) rotate(9)" opacity="0.18">
  <rect x="-48" y="-34" width="96" height="68" rx="18" fill="#2563eb" opacity=".72"/>
  <circle cx="-18" cy="0" r="13" fill="#fff" opacity=".8"/>
  <circle cx="20" cy="0" r="13" fill="#fff" opacity=".8"/>
</g><g transform="translate(1010 720) rotate(18)" opacity="0.18">
  <rect x="-48" y="-34" width="96" height="68" rx="18" fill="#ffffff" opacity=".72"/>
  <circle cx="-18" cy="0" r="13" fill="#fff" opacity=".8"/>
  <circle cx="20" cy="0" r="13" fill="#fff" opacity=".8"/>
</g>
<path d="M0 142 C250 96 380 172 620 126 S900 105 1080 150 L1080 0 L0 0 Z" fill="#ffffff18"/>

<text x="72" y="92" font-family="Pretendard, Noto Sans KR, Apple SD Gothic Neo, Malgun Gothic, Arial, sans-serif" font-size="24" font-weight="900" fill="#ffffffd9">@trlab.insight · 02</text>
<text x="72" y="192" font-family="Pretendard, Noto Sans KR, Apple SD Gothic Neo, Malgun Gothic, Arial, sans-serif" font-size="25" font-weight="900" fill="#05c46b">WHY NOW</text>
<text x="72" y="330" font-family="Pretendard, Noto Sans KR, Apple SD Gothic Neo, Malgun Gothic, Arial, sans-serif" font-size="72" font-weight="900" fill="#101828">왜 지금</text><text x="72" y="418" font-family="Pretendard, Noto Sans KR, Apple SD Gothic Neo, Malgun Gothic, Arial, sans-serif" font-size="72" font-weight="900" fill="#101828">여행지 결제가</text><text x="72" y="506" font-family="Pretendard, Noto Sans KR, Apple SD Gothic Neo, Malgun Gothic, Arial, sans-serif" font-size="72" font-weight="900" fill="#101828">중요할까?</text>
<rect x="72" y="525" width="936" height="468" rx="18" fill="#fff" stroke="#e5e7eb" stroke-width="2" filter="url(#softShadow)"/>
<text x="116" y="635" font-family="Pretendard, Noto Sans KR, Apple SD Gothic Neo, Malgun Gothic, Arial, sans-serif" font-size="37" font-weight="900" fill="#101828">해외여행 회복 이후 간편결제의 접점은</text><text x="116" y="693" font-family="Pretendard, Noto Sans KR, Apple SD Gothic Neo, Malgun Gothic, Arial, sans-serif" font-size="37" font-weight="900" fill="#101828">환전보다 빠른 현장 결제로 옮겨가고</text><text x="116" y="751" font-family="Pretendard, Noto Sans KR, Apple SD Gothic Neo, Malgun Gothic, Arial, sans-serif" font-size="37" font-weight="900" fill="#101828">있습니다.</text><text x="116" y="809" font-family="Pretendard, Noto Sans KR, Apple SD Gothic Neo, Malgun Gothic, Arial, sans-serif" font-size="37" font-weight="900" fill="#101828">브랜드는 결제 순간을 여행 경험으로</text><text x="116" y="867" font-family="Pretendard, Noto Sans KR, Apple SD Gothic Neo, Malgun Gothic, Arial, sans-serif" font-size="37" font-weight="900" fill="#101828">묶으려 합니다.</text>
<rect x="116" y="884" width="190" height="60" rx="8" fill="#05c46b"/>
<text x="211" y="923" font-family="Pretendard, Noto Sans KR, Apple SD Gothic Neo, Malgun Gothic, Arial, sans-serif" font-size="21" text-anchor="middle" font-weight="900" fill="#fff">여행 회복</text><rect x="340" y="884" width="190" height="60" rx="8" fill="#eef2f7"/>
<text x="435" y="923" font-family="Pretendard, Noto Sans KR, Apple SD Gothic Neo, Malgun Gothic, Arial, sans-serif" font-size="21" text-anchor="middle" font-weight="900" fill="#101828">현지 QR</text><rect x="564" y="884" width="190" height="60" rx="8" fill="#eef2f7"/>
<text x="659" y="923" font-family="Pretendard, Noto Sans KR, Apple SD Gothic Neo, Malgun Gothic, Arial, sans-serif" font-size="21" text-anchor="middle" font-weight="900" fill="#101828">첫 결제 경험</text>
</svg>