<svg xmlns="http://www.w3.org/2000/svg" width="1080" height="1350" viewBox="0 0 1080 1350">
<defs>
  <linearGradient id="fadeBottom" x1="0" x2="0" y1="0" y2="1">
    <stop offset="0%" stop-color="#000000" stop-opacity="0"/>
    <stop offset="58%" stop-color="#000000" stop-opacity=".12"/>
    <stop offset="100%" stop-color="#000000" stop-opacity=".82"/>
  </linearGradient>
  <filter id="softShadow" x="-20%" y="-20%" width="140%" height="140%">
    <feDropShadow dx="0" dy="18" stdDeviation="24" flood-color="#020617" flood-opacity="0.18"/>
  </filter>
</defs>
<rect width="1080" height="1350" fill="#f5fbf7"/>
<rect width="1080" height="160" fill="#062418"/>
<g transform="translate(60 120) rotate(-18)" opacity="0.18">
  <rect x="-48" y="-34" width="96" height="68" rx="18" fill="#05c46b" opacity=".72"/>
  <circle cx="-18" cy="0" r="13" fill="#fff" opacity=".8"/>
  <circle cx="20" cy="0" r="13" fill="#fff" opacity=".8"/>
</g><g transform="translate(250 120) rotate(-9)" opacity="0.18">
  <rect x="-48" y="-34" width="96" height="68" rx="18" fill="#2563eb" opacity=".72"/>
  <circle cx="-18" cy="0" r="13" fill="#fff" opacity=".8"/>
  <circle cx="20" cy="0" r="13" fill="#fff" opacity=".8"/>
</g><g transform="translate(440 120) rotate(0)" opacity="0.18">
  <rect x="-48" y="-34" width="96" height="68" rx="18" fill="#ffffff" opacity=".72"/>
  <circle cx="-18" cy="0" r="13" fill="#fff" opacity=".8"/>
  <circle cx="20" cy="0" r="13" fill="#fff" opacity=".8"/>
</g><g transform="translate(630 120) rotate(9)" opacity="0.18">
  <rect x="-48" y="-34" width="96" height="68" rx="18" fill="#05c46b" opacity=".72"/>
  <circle cx="-18" cy="0" r="13" fill="#fff" opacity=".8"/>
  <circle cx="20" cy="0" r="13" fill="#fff" opacity=".8"/>
</g><g transform="translate(820 120) rotate(18)" opacity="0.18">
  <rect x="-48" y="-34" width="96" height="68" rx="18" fill="#2563eb" opacity=".72"/>
  <circle cx="-18" cy="0" r="13" fill="#fff" opacity=".8"/>
  <circle cx="20" cy="0" r="13" fill="#fff" opacity=".8"/>
</g><g transform="translate(1010 120) rotate(-18)" opacity="0.18">
  <rect x="-48" y="-34" width="96" height="68" rx="18" fill="#ffffff" opacity=".72"/>
  <circle cx="-18" cy="0" r="13" fill="#fff" opacity=".8"/>
  <circle cx="20" cy="0" r="13" fill="#fff" opacity=".8"/>
</g><g transform="translate(102 270) rotate(-9)" opacity="0.18">
  <rect x="-48" y="-34" width="96" height="68" rx="18" fill="#05c46b" opacity=".72"/>
  <circle cx="-18" cy="0" r="13" fill="#fff" opacity=".8"/>
  <circle cx="20" cy="0" r="13" fill="#fff" opacity=".8"/>
</g><g transform="translate(292 270) rotate(0)" opacity="0.18">
  <rect x="-48" y="-34" width="96" height="68" rx="18" fill="#2563eb" opacity=".72"/>
  <circle cx="-18" cy="0" r="13" fill="#fff" opacity=".8"/>
  <circle cx="20" cy="0" r="13" fill="#fff" opacity=".8"/>
</g><g transform="translate(482 270) rotate(9)" opacity="0.18">
  <rect x="-48" y="-34" width="96" height="68" rx="18" fill="#ffffff" opacity=".72"/>
  <circle cx="-18" cy="0" r="13" fill="#fff" opacity=".8"/>
  <circle cx="20" cy="0" r="13" fill="#fff" opacity=".8"/>
</g><g transform="translate(672 270) rotate(18)" opacity="0.18">
  <rect x="-48" y="-34" width="96" height="68" rx="18" fill="#05c46b" opacity=".72"/>
  <circle cx="-18" cy="0" r="13" fill="#fff" opacity=".8"/>
  <circle cx="20" cy="0" r="13" fill="#fff" opacity=".8"/>
</g><g transform="translate(862 270) rotate(-18)" opacity="0.18">
  <rect x="-48" y="-34" width="96" height="68" rx="18" fill="#2563eb" opacity=".72"/>
  <circle cx="-18" cy="0" r="13" fill="#fff" opacity=".8"/>
  <circle cx="20" cy="0" r="13" fill="#fff" opacity=".8"/>
</g><g transform="translate(1052 270) rotate(-9)" opacity="0.18">
  <rect x="-48" y="-34" width="96" height="68" rx="18" fill="#ffffff" opacity=".72"/>
  <circle cx="-18" cy="0" r="13" fill="#fff" opacity=".8"/>
  <circle cx="20" cy="0" r="13" fill="#fff" opacity=".8"/>
</g><g transform="translate(60 420) rotate(0)" opacity="0.18">
  <rect x="-48" y="-34" width="96" height="68" rx="18" fill="#05c46b" opacity=".72"/>
  <circle cx="-18" cy="0" r="13" fill="#fff" opacity=".8"/>
  <circle cx="20" cy="0" r="13" fill="#fff" opacity=".8"/>
</g><g transform="translate(250 420) rotate(9)" opacity="0.18">
  <rect x="-48" y="-34" width="96" height="68" rx="18" fill="#2563eb" opacity=".72"/>
  <circle cx="-18" cy="0" r="13" fill="#fff" opacity=".8"/>
  <circle cx="20" cy="0" r="13" fill="#fff" opacity=".8"/>
</g><g transform="translate(440 420) rotate(18)" opacity="0.18">
  <rect x="-48" y="-34" width="96" height="68" rx="18" fill="#ffffff" opacity=".72"/>
  <circle cx="-18" cy="0" r="13" fill="#fff" opacity=".8"/>
  <circle cx="20" cy="0" r="13" fill="#fff" opacity=".8"/>
</g><g transform="translate(630 420) rotate(-18)" opacity="0.18">
  <rect x="-48" y="-34" width="96" height="68" rx="18" fill="#05c46b" opacity=".72"/>
  <circle cx="-18" cy="0" r="13" fill="#fff" opacity=".8"/>
  <circle cx="20" cy="0" r="13" fill="#fff" opacity=".8"/>
</g><g transform="translate(820 420) rotate(-9)" opacity="0.18">
  <rect x="-48" y="-34" width="96" height="68" rx="18" fill="#2563eb" opacity=".72"/>
  <circle cx="-18" cy="0" r="13" fill="#fff" opacity=".8"/>
  <circle cx="20" cy="0" r="13" fill="#fff" opacity=".8"/>
</g><g transform="translate(1010 420) rotate(0)" opacity="0.18">
  <rect x="-48" y="-34" width="96" height="68" rx="18" fill="#ffffff" opacity=".72"/>
  <circle cx="-18" cy="0" r="13" fill="#fff" opacity=".8"/>
  <circle cx="20" cy="0" r="13" fill="#fff" opacity=".8"/>
</g><g transform="translate(102 570) rotate(9)" opacity="0.18">
  <rect x="-48" y="-34" width="96" height="68" rx="18" fill="#05c46b" opacity=".72"/>
  <circle cx="-18" cy="0" r="13" fill="#fff" opacity=".8"/>
  <circle cx="20" cy="0" r="13" fill="#fff" opacity=".8"/>
</g><g transform="translate(292 570) rotate(18)" opacity="0.18">
  <rect x="-48" y="-34" width="96" height="68" rx="18" fill="#2563eb" opacity=".72"/>
  <circle cx="-18" cy="0" r="13" fill="#fff" opacity=".8"/>
  <circle cx="20" cy="0" r="13" fill="#fff" opacity=".8"/>
</g><g transform="translate(482 570) rotate(-18)" opacity="0.18">
  <rect x="-48" y="-34" width="96" height="68" rx="18" fill="#ffffff" opacity=".72"/>
  <circle cx="-18" cy="0" r="13" fill="#fff" opacity=".8"/>
  <circle cx="20" cy="0" r="13" fill="#fff" opacity=".8"/>
</g><g transform="translate(672 570) rotate(-9)" opacity="0.18">
  <rect x="-48" y="-34" width="96" height="68" rx="18" fill="#05c46b" opacity=".72"/>
  <circle cx="-18" cy="0" r="13" fill="#fff" opacity=".8"/>
  <circle cx="20" cy="0" r="13" fill="#fff" opacity=".8"/>
</g><g transform="translate(862 570) rotate(0)" opacity="0.18">
  <rect x="-48" y="-34" width="96" height="68" rx="18" fill="#2563eb" opacity=".72"/>
  <circle cx="-18" cy="0" r="13" fill="#fff" opacity=".8"/>
  <circle cx="20" cy="0" r="13" fill="#fff" opacity=".8"/>
</g><g transform="translate(1052 570) rotate(9)" opacity="0.18">
  <rect x="-48" y="-34" width="96" height="68" rx="18" fill="#ffffff" opacity=".72"/>
  <circle cx="-18" cy="0" r="13" fill="#fff" opacity=".8"/>
  <circle cx="20" cy="0" r="13" fill="#fff" opacity=".8"/>
</g><g transform="translate(60 720) rotate(18)" opacity="0.18">
  <rect x="-48" y="-34" width="96" height="68" rx="18" fill="#05c46b" opacity=".72"/>
  <circle cx="-18" cy="0" r="13" fill="#fff" opacity=".8"/>
  <circle cx="20" cy="0" r="13" fill="#fff" opacity=".8"/>
</g><g transform="translate(250 720) rotate(-18)" opacity="0.18">
  <rect x="-48" y="-34" width="96" height="68" rx="18" fill="#2563eb" opacity=".72"/>
  <circle cx="-18" cy="0" r="13" fill="#fff" opacity=".8"/>
  <circle cx="20" cy="0" r="13" fill="#fff" opacity=".8"/>
</g><g transform="translate(440 720) rotate(-9)" opacity="0.18">
  <rect x="-48" y="-34" width="96" height="68" rx="18" fill="#ffffff" opacity=".72"/>
  <circle cx="-18" cy="0" r="13" fill="#fff" opacity=".8"/>
  <circle cx="20" cy="0" r="13" fill="#fff" opacity=".8"/>
</g><g transform="translate(630 720) rotate(0)" opacity="0.18">
  <rect x="-48" y="-34" width="96" height="68" rx="18" fill="#05c46b" opacity=".72"/>
  <circle cx="-18" cy="0" r="13" fill="#fff" opacity=".8"/>
  <circle cx="20" cy="0" r="13" fill="#fff" opacity=".8"/>
</g><g transform="translate(820 720) rotate(9)" opacity="0.18">
  <rect x="-48" y="-34" width="96" height="68" rx="18" fill="#2563eb" opacity=".72"/>
  <circle cx="-18" cy="0" r="13" fill="#fff" opacity=".8"/>
  <circle cx="20" cy="0" r="13" fill="#fff" opacity=".8"/>
</g><g transform="translate(1010 720) rotate(18)" opacity="0.18">
  <rect x="-48" y="-34" width="96" height="68" rx="18" fill="#ffffff" opacity=".72"/>
  <circle cx="-18" cy="0" r="13" fill="#fff" opacity=".8"/>
  <circle cx="20" cy="0" r="13" fill="#fff" opacity=".8"/>
</g>
<path d="M0 142 C250 96 380 172 620 126 S900 105 1080 150 L1080 0 L0 0 Z" fill="#ffffff18"/>

<text x="72" y="92" font-family="Pretendard, Noto Sans KR, Apple SD Gothic Neo, Malgun Gothic, Arial, sans-serif" font-size="24" font-weight="900" fill="#ffffffd9">@trlab.insight · 03</text>
<text x="72" y="192" font-family="Pretendard, Noto Sans KR, Apple SD Gothic Neo, Malgun Gothic, Arial, sans-serif" font-size="25" font-weight="900" fill="#2563eb">SHIFT</text>
<text x="72" y="330" font-family="Pretendard, Noto Sans KR, Apple SD Gothic Neo, Malgun Gothic, Arial, sans-serif" font-size="68" font-weight="900" fill="#101828">캠페인의 핵심은</text><text x="72" y="414" font-family="Pretendard, Noto Sans KR, Apple SD Gothic Neo, Malgun Gothic, Arial, sans-serif" font-size="68" font-weight="900" fill="#101828">광고보다 사용 동선</text>
<rect x="72" y="545" width="436" height="560" rx="18" fill="#fff" stroke="#d1d5db" stroke-width="2" filter="url(#softShadow)"/>
<text x="106" y="623" font-family="Pretendard, Noto Sans KR, Apple SD Gothic Neo, Malgun Gothic, Arial, sans-serif" font-size="34" font-weight="900" fill="#101828">기존 결제</text>
<rect x="106" y="683" width="368" height="76" rx="8" fill="#f8fafc"/>
<text x="134" y="729" font-family="Pretendard, Noto Sans KR, Apple SD Gothic Neo, Malgun Gothic, Arial, sans-serif" font-size="25" font-weight="900" fill="#101828">국내 사용 중심</text><rect x="106" y="799" width="368" height="76" rx="8" fill="#f8fafc"/>
<text x="134" y="845" font-family="Pretendard, Noto Sans KR, Apple SD Gothic Neo, Malgun Gothic, Arial, sans-serif" font-size="25" font-weight="900" fill="#101828">혜택 안내 위주</text><rect x="106" y="915" width="368" height="76" rx="8" fill="#f8fafc"/>
<text x="134" y="961" font-family="Pretendard, Noto Sans KR, Apple SD Gothic Neo, Malgun Gothic, Arial, sans-serif" font-size="25" font-weight="900" fill="#101828">사용처 탐색 필요</text>
<rect x="572" y="545" width="436" height="560" rx="18" fill="#101828" stroke="#101828" stroke-width="2" filter="url(#softShadow)"/>
<text x="606" y="623" font-family="Pretendard, Noto Sans KR, Apple SD Gothic Neo, Malgun Gothic, Arial, sans-serif" font-size="34" font-weight="900" fill="#fff">이번 흐름</text>
<rect x="606" y="683" width="368" height="76" rx="8" fill="#ffffff18"/>
<text x="634" y="729" font-family="Pretendard, Noto Sans KR, Apple SD Gothic Neo, Malgun Gothic, Arial, sans-serif" font-size="25" font-weight="900" fill="#fff">여행지 사용면 확대</text><rect x="606" y="799" width="368" height="76" rx="8" fill="#ffffff18"/>
<text x="634" y="845" font-family="Pretendard, Noto Sans KR, Apple SD Gothic Neo, Malgun Gothic, Arial, sans-serif" font-size="25" font-weight="900" fill="#fff">관광청 협업</text><rect x="606" y="915" width="368" height="76" rx="8" fill="#ffffff18"/>
<text x="634" y="961" font-family="Pretendard, Noto Sans KR, Apple SD Gothic Neo, Malgun Gothic, Arial, sans-serif" font-size="25" font-weight="900" fill="#fff">현지 QR 경험</text>
</svg>