<svg xmlns="http://www.w3.org/2000/svg" width="1080" height="1350" viewBox="0 0 1080 1350">
<defs>
  <linearGradient id="fadeBottom" x1="0" x2="0" y1="0" y2="1">
    <stop offset="0%" stop-color="#000000" stop-opacity="0"/>
    <stop offset="58%" stop-color="#000000" stop-opacity=".12"/>
    <stop offset="100%" stop-color="#000000" stop-opacity=".82"/>
  </linearGradient>
  <filter id="softShadow" x="-20%" y="-20%" width="140%" height="140%">
    <feDropShadow dx="0" dy="18" stdDeviation="24" flood-color="#020617" flood-opacity="0.18"/>
  </filter>
</defs>
<rect width="1080" height="1350" fill="#f5fbf7"/>
<rect width="1080" height="160" fill="#062418"/>
<g transform="translate(60 120) rotate(-18)" opacity="0.18">
  <rect x="-48" y="-34" width="96" height="68" rx="18" fill="#05c46b" opacity=".72"/>
  <circle cx="-18" cy="0" r="13" fill="#fff" opacity=".8"/>
  <circle cx="20" cy="0" r="13" fill="#fff" opacity=".8"/>
</g><g transform="translate(250 120) rotate(-9)" opacity="0.18">
  <rect x="-48" y="-34" width="96" height="68" rx="18" fill="#2563eb" opacity=".72"/>
  <circle cx="-18" cy="0" r="13" fill="#fff" opacity=".8"/>
  <circle cx="20" cy="0" r="13" fill="#fff" opacity=".8"/>
</g><g transform="translate(440 120) rotate(0)" opacity="0.18">
  <rect x="-48" y="-34" width="96" height="68" rx="18" fill="#ffffff" opacity=".72"/>
  <circle cx="-18" cy="0" r="13" fill="#fff" opacity=".8"/>
  <circle cx="20" cy="0" r="13" fill="#fff" opacity=".8"/>
</g><g transform="translate(630 120) rotate(9)" opacity="0.18">
  <rect x="-48" y="-34" width="96" height="68" rx="18" fill="#05c46b" opacity=".72"/>
  <circle cx="-18" cy="0" r="13" fill="#fff" opacity=".8"/>
  <circle cx="20" cy="0" r="13" fill="#fff" opacity=".8"/>
</g><g transform="translate(820 120) rotate(18)" opacity="0.18">
  <rect x="-48" y="-34" width="96" height="68" rx="18" fill="#2563eb" opacity=".72"/>
  <circle cx="-18" cy="0" r="13" fill="#fff" opacity=".8"/>
  <circle cx="20" cy="0" r="13" fill="#fff" opacity=".8"/>
</g><g transform="translate(1010 120) rotate(-18)" opacity="0.18">
  <rect x="-48" y="-34" width="96" height="68" rx="18" fill="#ffffff" opacity=".72"/>
  <circle cx="-18" cy="0" r="13" fill="#fff" opacity=".8"/>
  <circle cx="20" cy="0" r="13" fill="#fff" opacity=".8"/>
</g><g transform="translate(102 270) rotate(-9)" opacity="0.18">
  <rect x="-48" y="-34" width="96" height="68" rx="18" fill="#05c46b" opacity=".72"/>
  <circle cx="-18" cy="0" r="13" fill="#fff" opacity=".8"/>
  <circle cx="20" cy="0" r="13" fill="#fff" opacity=".8"/>
</g><g transform="translate(292 270) rotate(0)" opacity="0.18">
  <rect x="-48" y="-34" width="96" height="68" rx="18" fill="#2563eb" opacity=".72"/>
  <circle cx="-18" cy="0" r="13" fill="#fff" opacity=".8"/>
  <circle cx="20" cy="0" r="13" fill="#fff" opacity=".8"/>
</g><g transform="translate(482 270) rotate(9)" opacity="0.18">
  <rect x="-48" y="-34" width="96" height="68" rx="18" fill="#ffffff" opacity=".72"/>
  <circle cx="-18" cy="0" r="13" fill="#fff" opacity=".8"/>
  <circle cx="20" cy="0" r="13" fill="#fff" opacity=".8"/>
</g><g transform="translate(672 270) rotate(18)" opacity="0.18">
  <rect x="-48" y="-34" width="96" height="68" rx="18" fill="#05c46b" opacity=".72"/>
  <circle cx="-18" cy="0" r="13" fill="#fff" opacity=".8"/>
  <circle cx="20" cy="0" r="13" fill="#fff" opacity=".8"/>
</g><g transform="translate(862 270) rotate(-18)" opacity="0.18">
  <rect x="-48" y="-34" width="96" height="68" rx="18" fill="#2563eb" opacity=".72"/>
  <circle cx="-18" cy="0" r="13" fill="#fff" opacity=".8"/>
  <circle cx="20" cy="0" r="13" fill="#fff" opacity=".8"/>
</g><g transform="translate(1052 270) rotate(-9)" opacity="0.18">
  <rect x="-48" y="-34" width="96" height="68" rx="18" fill="#ffffff" opacity=".72"/>
  <circle cx="-18" cy="0" r="13" fill="#fff" opacity=".8"/>
  <circle cx="20" cy="0" r="13" fill="#fff" opacity=".8"/>
</g><g transform="translate(60 420) rotate(0)" opacity="0.18">
  <rect x="-48" y="-34" width="96" height="68" rx="18" fill="#05c46b" opacity=".72"/>
  <circle cx="-18" cy="0" r="13" fill="#fff" opacity=".8"/>
  <circle cx="20" cy="0" r="13" fill="#fff" opacity=".8"/>
</g><g transform="translate(250 420) rotate(9)" opacity="0.18">
  <rect x="-48" y="-34" width="96" height="68" rx="18" fill="#2563eb" opacity=".72"/>
  <circle cx="-18" cy="0" r="13" fill="#fff" opacity=".8"/>
  <circle cx="20" cy="0" r="13" fill="#fff" opacity=".8"/>
</g><g transform="translate(440 420) rotate(18)" opacity="0.18">
  <rect x="-48" y="-34" width="96" height="68" rx="18" fill="#ffffff" opacity=".72"/>
  <circle cx="-18" cy="0" r="13" fill="#fff" opacity=".8"/>
  <circle cx="20" cy="0" r="13" fill="#fff" opacity=".8"/>
</g><g transform="translate(630 420) rotate(-18)" opacity="0.18">
  <rect x="-48" y="-34" width="96" height="68" rx="18" fill="#05c46b" opacity=".72"/>
  <circle cx="-18" cy="0" r="13" fill="#fff" opacity=".8"/>
  <circle cx="20" cy="0" r="13" fill="#fff" opacity=".8"/>
</g><g transform="translate(820 420) rotate(-9)" opacity="0.18">
  <rect x="-48" y="-34" width="96" height="68" rx="18" fill="#2563eb" opacity=".72"/>
  <circle cx="-18" cy="0" r="13" fill="#fff" opacity=".8"/>
  <circle cx="20" cy="0" r="13" fill="#fff" opacity=".8"/>
</g><g transform="translate(1010 420) rotate(0)" opacity="0.18">
  <rect x="-48" y="-34" width="96" height="68" rx="18" fill="#ffffff" opacity=".72"/>
  <circle cx="-18" cy="0" r="13" fill="#fff" opacity=".8"/>
  <circle cx="20" cy="0" r="13" fill="#fff" opacity=".8"/>
</g><g transform="translate(102 570) rotate(9)" opacity="0.18">
  <rect x="-48" y="-34" width="96" height="68" rx="18" fill="#05c46b" opacity=".72"/>
  <circle cx="-18" cy="0" r="13" fill="#fff" opacity=".8"/>
  <circle cx="20" cy="0" r="13" fill="#fff" opacity=".8"/>
</g><g transform="translate(292 570) rotate(18)" opacity="0.18">
  <rect x="-48" y="-34" width="96" height="68" rx="18" fill="#2563eb" opacity=".72"/>
  <circle cx="-18" cy="0" r="13" fill="#fff" opacity=".8"/>
  <circle cx="20" cy="0" r="13" fill="#fff" opacity=".8"/>
</g><g transform="translate(482 570) rotate(-18)" opacity="0.18">
  <rect x="-48" y="-34" width="96" height="68" rx="18" fill="#ffffff" opacity=".72"/>
  <circle cx="-18" cy="0" r="13" fill="#fff" opacity=".8"/>
  <circle cx="20" cy="0" r="13" fill="#fff" opacity=".8"/>
</g><g transform="translate(672 570) rotate(-9)" opacity="0.18">
  <rect x="-48" y="-34" width="96" height="68" rx="18" fill="#05c46b" opacity=".72"/>
  <circle cx="-18" cy="0" r="13" fill="#fff" opacity=".8"/>
  <circle cx="20" cy="0" r="13" fill="#fff" opacity=".8"/>
</g><g transform="translate(862 570) rotate(0)" opacity="0.18">
  <rect x="-48" y="-34" width="96" height="68" rx="18" fill="#2563eb" opacity=".72"/>
  <circle cx="-18" cy="0" r="13" fill="#fff" opacity=".8"/>
  <circle cx="20" cy="0" r="13" fill="#fff" opacity=".8"/>
</g><g transform="translate(1052 570) rotate(9)" opacity="0.18">
  <rect x="-48" y="-34" width="96" height="68" rx="18" fill="#ffffff" opacity=".72"/>
  <circle cx="-18" cy="0" r="13" fill="#fff" opacity=".8"/>
  <circle cx="20" cy="0" r="13" fill="#fff" opacity=".8"/>
</g><g transform="translate(60 720) rotate(18)" opacity="0.18">
  <rect x="-48" y="-34" width="96" height="68" rx="18" fill="#05c46b" opacity=".72"/>
  <circle cx="-18" cy="0" r="13" fill="#fff" opacity=".8"/>
  <circle cx="20" cy="0" r="13" fill="#fff" opacity=".8"/>
</g><g transform="translate(250 720) rotate(-18)" opacity="0.18">
  <rect x="-48" y="-34" width="96" height="68" rx="18" fill="#2563eb" opacity=".72"/>
  <circle cx="-18" cy="0" r="13" fill="#fff" opacity=".8"/>
  <circle cx="20" cy="0" r="13" fill="#fff" opacity=".8"/>
</g><g transform="translate(440 720) rotate(-9)" opacity="0.18">
  <rect x="-48" y="-34" width="96" height="68" rx="18" fill="#ffffff" opacity=".72"/>
  <circle cx="-18" cy="0" r="13" fill="#fff" opacity=".8"/>
  <circle cx="20" cy="0" r="13" fill="#fff" opacity=".8"/>
</g><g transform="translate(630 720) rotate(0)" opacity="0.18">
  <rect x="-48" y="-34" width="96" height="68" rx="18" fill="#05c46b" opacity=".72"/>
  <circle cx="-18" cy="0" r="13" fill="#fff" opacity=".8"/>
  <circle cx="20" cy="0" r="13" fill="#fff" opacity=".8"/>
</g><g transform="translate(820 720) rotate(9)" opacity="0.18">
  <rect x="-48" y="-34" width="96" height="68" rx="18" fill="#2563eb" opacity=".72"/>
  <circle cx="-18" cy="0" r="13" fill="#fff" opacity=".8"/>
  <circle cx="20" cy="0" r="13" fill="#fff" opacity=".8"/>
</g><g transform="translate(1010 720) rotate(18)" opacity="0.18">
  <rect x="-48" y="-34" width="96" height="68" rx="18" fill="#ffffff" opacity=".72"/>
  <circle cx="-18" cy="0" r="13" fill="#fff" opacity=".8"/>
  <circle cx="20" cy="0" r="13" fill="#fff" opacity=".8"/>
</g>
<path d="M0 142 C250 96 380 172 620 126 S900 105 1080 150 L1080 0 L0 0 Z" fill="#ffffff18"/>

<text x="72" y="92" font-family="Pretendard, Noto Sans KR, Apple SD Gothic Neo, Malgun Gothic, Arial, sans-serif" font-size="24" font-weight="900" fill="#ffffffd9">@trlab.insight · 05</text>
<text x="72" y="184" font-family="Pretendard, Noto Sans KR, Apple SD Gothic Neo, Malgun Gothic, Arial, sans-serif" font-size="25" font-weight="900" fill="#2563eb">SAVE THIS</text>
<text x="72" y="318" font-family="Pretendard, Noto Sans KR, Apple SD Gothic Neo, Malgun Gothic, Arial, sans-serif" font-size="72" font-weight="900" fill="#101828">다음에 볼 포인트</text>
<text x="72" y="468" font-family="Pretendard, Noto Sans KR, Apple SD Gothic Neo, Malgun Gothic, Arial, sans-serif" font-size="34" font-weight="900" fill="#52616f">이 캠페인의 성패는 노출량보다</text><text x="72" y="516" font-family="Pretendard, Noto Sans KR, Apple SD Gothic Neo, Malgun Gothic, Arial, sans-serif" font-size="34" font-weight="900" fill="#52616f">해외에서 한 번 써보게 만드는 설계에</text><text x="72" y="564" font-family="Pretendard, Noto Sans KR, Apple SD Gothic Neo, Malgun Gothic, Arial, sans-serif" font-size="34" font-weight="900" fill="#52616f">달려 있습니다.</text>
<rect x="72" y="610" width="936" height="88" rx="14" fill="#fff" stroke="#d1d5db" stroke-width="2"/>
<rect x="106" y="636" width="36" height="36" rx="6" fill="#2563eb"/>
<path d="M116 654 l8 9 l18 -20" stroke="#fff" stroke-width="5" fill="none" stroke-linecap="round" stroke-linejoin="round"/>
<text x="174" y="666" font-family="Pretendard, Noto Sans KR, Apple SD Gothic Neo, Malgun Gothic, Arial, sans-serif" font-size="29" font-weight="900" fill="#101828">어느 여행 동선에 들어가는가</text><rect x="72" y="732" width="936" height="88" rx="14" fill="#fff" stroke="#d1d5db" stroke-width="2"/>
<rect x="106" y="758" width="36" height="36" rx="6" fill="#2563eb"/>
<path d="M116 776 l8 9 l18 -20" stroke="#fff" stroke-width="5" fill="none" stroke-linecap="round" stroke-linejoin="round"/>
<text x="174" y="788" font-family="Pretendard, Noto Sans KR, Apple SD Gothic Neo, Malgun Gothic, Arial, sans-serif" font-size="29" font-weight="900" fill="#101828">현지 사용처가 충분한가</text><rect x="72" y="854" width="936" height="88" rx="14" fill="#fff" stroke="#d1d5db" stroke-width="2"/>
<rect x="106" y="880" width="36" height="36" rx="6" fill="#2563eb"/>
<path d="M116 898 l8 9 l18 -20" stroke="#fff" stroke-width="5" fill="none" stroke-linecap="round" stroke-linejoin="round"/>
<text x="174" y="910" font-family="Pretendard, Noto Sans KR, Apple SD Gothic Neo, Malgun Gothic, Arial, sans-serif" font-size="29" font-weight="900" fill="#101828">첫 사용 보상이 있는가</text><rect x="72" y="976" width="936" height="88" rx="14" fill="#fff" stroke="#d1d5db" stroke-width="2"/>
<rect x="106" y="1002" width="36" height="36" rx="6" fill="#2563eb"/>
<path d="M116 1020 l8 9 l18 -20" stroke="#fff" stroke-width="5" fill="none" stroke-linecap="round" stroke-linejoin="round"/>
<text x="174" y="1032" font-family="Pretendard, Noto Sans KR, Apple SD Gothic Neo, Malgun Gothic, Arial, sans-serif" font-size="29" font-weight="900" fill="#101828">국내 재사용으로 이어지는가</text>
</svg>