<svg xmlns="http://www.w3.org/2000/svg" width="1080" height="1350" viewBox="0 0 1080 1350">
<defs>
  <linearGradient id="fadeBottom" x1="0" x2="0" y1="0" y2="1">
    <stop offset="0%" stop-color="#000000" stop-opacity="0"/>
    <stop offset="58%" stop-color="#000000" stop-opacity=".12"/>
    <stop offset="100%" stop-color="#000000" stop-opacity=".82"/>
  </linearGradient>
  <filter id="softShadow" x="-20%" y="-20%" width="140%" height="140%">
    <feDropShadow dx="0" dy="18" stdDeviation="24" flood-color="#020617" flood-opacity="0.18"/>
  </filter>
</defs>
<rect width="1080" height="1350" fill="#eef6ff"/>
<rect width="1080" height="1350" fill="#08111f"/>
<path d="M60 70 V490 M30 180 H170" stroke="#38bdf8" stroke-width="2" opacity="0.32"/><path d="M152 70 V534 M122 250 H262" stroke="#2563eb" stroke-width="2" opacity="0.32"/><path d="M244 70 V578 M214 320 H354" stroke="#38bdf8" stroke-width="2" opacity="0.32"/><path d="M336 70 V490 M306 390 H446" stroke="#2563eb" stroke-width="2" opacity="0.32"/><path d="M428 70 V534 M398 180 H538" stroke="#38bdf8" stroke-width="2" opacity="0.32"/><path d="M520 70 V578 M490 250 H630" stroke="#2563eb" stroke-width="2" opacity="0.32"/><path d="M612 70 V490 M582 320 H722" stroke="#38bdf8" stroke-width="2" opacity="0.32"/><path d="M704 70 V534 M674 390 H814" stroke="#2563eb" stroke-width="2" opacity="0.32"/><path d="M796 70 V578 M766 180 H906" stroke="#38bdf8" stroke-width="2" opacity="0.32"/><path d="M888 70 V490 M858 250 H998" stroke="#2563eb" stroke-width="2" opacity="0.32"/><path d="M980 70 V534 M950 320 H1090" stroke="#38bdf8" stroke-width="2" opacity="0.32"/><path d="M1072 70 V578 M1042 390 H1182" stroke="#2563eb" stroke-width="2" opacity="0.32"/>
<rect x="48" y="120" width="58" height="58" rx="8" fill="#ef4444" opacity="0.22"/><rect x="194" y="120" width="58" height="58" rx="8" fill="#2563eb" opacity="0.22"/><rect x="340" y="120" width="58" height="58" rx="8" fill="#2563eb" opacity="0.22"/><rect x="486" y="120" width="58" height="58" rx="8" fill="#2563eb" opacity="0.22"/><rect x="632" y="120" width="58" height="58" rx="8" fill="#ef4444" opacity="0.22"/><rect x="778" y="120" width="58" height="58" rx="8" fill="#2563eb" opacity="0.22"/><rect x="924" y="120" width="58" height="58" rx="8" fill="#2563eb" opacity="0.22"/><rect x="48" y="228" width="58" height="58" rx="8" fill="#2563eb" opacity="0.22"/><rect x="194" y="228" width="58" height="58" rx="8" fill="#ef4444" opacity="0.22"/><rect x="340" y="228" width="58" height="58" rx="8" fill="#2563eb" opacity="0.22"/><rect x="486" y="228" width="58" height="58" rx="8" fill="#2563eb" opacity="0.22"/><rect x="632" y="228" width="58" height="58" rx="8" fill="#2563eb" opacity="0.22"/><rect x="778" y="228" width="58" height="58" rx="8" fill="#ef4444" opacity="0.22"/><rect x="924" y="228" width="58" height="58" rx="8" fill="#2563eb" opacity="0.22"/><rect x="48" y="336" width="58" height="58" rx="8" fill="#2563eb" opacity="0.22"/><rect x="194" y="336" width="58" height="58" rx="8" fill="#2563eb" opacity="0.22"/><rect x="340" y="336" width="58" height="58" rx="8" fill="#ef4444" opacity="0.22"/><rect x="486" y="336" width="58" height="58" rx="8" fill="#2563eb" opacity="0.22"/><rect x="632" y="336" width="58" height="58" rx="8" fill="#2563eb" opacity="0.22"/><rect x="778" y="336" width="58" height="58" rx="8" fill="#2563eb" opacity="0.22"/><rect x="924" y="336" width="58" height="58" rx="8" fill="#ef4444" opacity="0.22"/><rect x="48" y="444" width="58" height="58" rx="8" fill="#2563eb" opacity="0.22"/><rect x="194" y="444" width="58" height="58" rx="8" fill="#2563eb" opacity="0.22"/><rect x="340" y="444" width="58" height="58" rx="8" fill="#2563eb" opacity="0.22"/><rect x="486" y="444" width="58" height="58" rx="8" fill="#ef4444" opacity="0.22"/><rect x="632" y="444" width="58" height="58" rx="8" fill="#2563eb" opacity="0.22"/><rect x="778" y="444" width="58" height="58" rx="8" fill="#2563eb" opacity="0.22"/><rect x="924" y="444" width="58" height="58" rx="8" fill="#2563eb" opacity="0.22"/><rect x="48" y="552" width="58" height="58" rx="8" fill="#ef4444" opacity="0.22"/><rect x="194" y="552" width="58" height="58" rx="8" fill="#2563eb" opacity="0.22"/><rect x="340" y="552" width="58" height="58" rx="8" fill="#2563eb" opacity="0.22"/><rect x="486" y="552" width="58" height="58" rx="8" fill="#2563eb" opacity="0.22"/><rect x="632" y="552" width="58" height="58" rx="8" fill="#ef4444" opacity="0.22"/><rect x="778" y="552" width="58" height="58" rx="8" fill="#2563eb" opacity="0.22"/><rect x="924" y="552" width="58" height="58" rx="8" fill="#2563eb" opacity="0.22"/><rect x="48" y="660" width="58" height="58" rx="8" fill="#2563eb" opacity="0.22"/><rect x="194" y="660" width="58" height="58" rx="8" fill="#ef4444" opacity="0.22"/><rect x="340" y="660" width="58" height="58" rx="8" fill="#2563eb" opacity="0.22"/><rect x="486" y="660" width="58" height="58" rx="8" fill="#2563eb" opacity="0.22"/><rect x="632" y="660" width="58" height="58" rx="8" fill="#2563eb" opacity="0.22"/><rect x="778" y="660" width="58" height="58" rx="8" fill="#ef4444" opacity="0.22"/><rect x="924" y="660" width="58" height="58" rx="8" fill="#2563eb" opacity="0.22"/>
<rect width="1080" height="1350" fill="url(#fadeBottom)"/>
<text x="72" y="92" font-family="Pretendard, Noto Sans KR, Apple SD Gothic Neo, Malgun Gothic, Arial, sans-serif" font-size="24" font-weight="900" fill="#ffffffcc">@trlab.insight · 01</text>
<rect x="0" y="620" width="1080" height="730" fill="#000" opacity=".62"/>
<text x="72" y="170" font-family="Pretendard, Noto Sans KR, Apple SD Gothic Neo, Malgun Gothic, Arial, sans-serif" font-size="26" font-weight="900" fill="#2563eb">TECH MARKET</text>
<text x="72" y="760" font-family="Pretendard, Noto Sans KR, Apple SD Gothic Neo, Malgun Gothic, Arial, sans-serif" font-size="88" font-weight="900" fill="#fff">AI 반도체,</text><text x="72" y="864" font-family="Pretendard, Noto Sans KR, Apple SD Gothic Neo, Malgun Gothic, Arial, sans-serif" font-size="88" font-weight="900" fill="#fff">10년짜리 판이</text><text x="72" y="968" font-family="Pretendard, Noto Sans KR, Apple SD Gothic Neo, Malgun Gothic, Arial, sans-serif" font-size="88" font-weight="900" fill="#fff">커진다</text>
<rect x="72" y="1045" width="170" height="10" rx="2" fill="#2563eb"/>
<text x="72" y="1128" font-family="Pretendard, Noto Sans KR, Apple SD Gothic Neo, Malgun Gothic, Arial, sans-serif" font-size="37" font-weight="900" fill="#fff">AI 모델 경쟁은 결국</text><text x="72" y="1178" font-family="Pretendard, Noto Sans KR, Apple SD Gothic Neo, Malgun Gothic, Arial, sans-serif" font-size="37" font-weight="900" fill="#fff">데이터센터와 칩 공급망 경쟁으로</text><text x="72" y="1228" font-family="Pretendard, Noto Sans KR, Apple SD Gothic Neo, Malgun Gothic, Arial, sans-serif" font-size="37" font-weight="900" fill="#fff">이어집니다.</text>
<text x="72" y="1300" font-family="Pretendard, Noto Sans KR, Apple SD Gothic Neo, Malgun Gothic, Arial, sans-serif" font-size="25" font-weight="900" fill="#ffffffc7">HBM, 가속기, 장비 공급망으로 번지는 AI 수요</text>
</svg>