<svg xmlns="http://www.w3.org/2000/svg" width="1080" height="1350" viewBox="0 0 1080 1350">
<defs>
  <linearGradient id="fadeBottom" x1="0" x2="0" y1="0" y2="1">
    <stop offset="0%" stop-color="#000000" stop-opacity="0"/>
    <stop offset="58%" stop-color="#000000" stop-opacity=".12"/>
    <stop offset="100%" stop-color="#000000" stop-opacity=".82"/>
  </linearGradient>
  <filter id="softShadow" x="-20%" y="-20%" width="140%" height="140%">
    <feDropShadow dx="0" dy="18" stdDeviation="24" flood-color="#020617" flood-opacity="0.18"/>
  </filter>
</defs>
<rect width="1080" height="1350" fill="#eef6ff"/>
<rect width="1080" height="160" fill="#08111f"/>
<path d="M60 70 V490 M30 180 H170" stroke="#38bdf8" stroke-width="2" opacity="0.18"/><path d="M152 70 V534 M122 250 H262" stroke="#2563eb" stroke-width="2" opacity="0.18"/><path d="M244 70 V578 M214 320 H354" stroke="#38bdf8" stroke-width="2" opacity="0.18"/><path d="M336 70 V490 M306 390 H446" stroke="#2563eb" stroke-width="2" opacity="0.18"/><path d="M428 70 V534 M398 180 H538" stroke="#38bdf8" stroke-width="2" opacity="0.18"/><path d="M520 70 V578 M490 250 H630" stroke="#2563eb" stroke-width="2" opacity="0.18"/><path d="M612 70 V490 M582 320 H722" stroke="#38bdf8" stroke-width="2" opacity="0.18"/><path d="M704 70 V534 M674 390 H814" stroke="#2563eb" stroke-width="2" opacity="0.18"/><path d="M796 70 V578 M766 180 H906" stroke="#38bdf8" stroke-width="2" opacity="0.18"/><path d="M888 70 V490 M858 250 H998" stroke="#2563eb" stroke-width="2" opacity="0.18"/><path d="M980 70 V534 M950 320 H1090" stroke="#38bdf8" stroke-width="2" opacity="0.18"/><path d="M1072 70 V578 M1042 390 H1182" stroke="#2563eb" stroke-width="2" opacity="0.18"/>
<rect x="48" y="120" width="58" height="58" rx="8" fill="#ef4444" opacity="0.1"/><rect x="194" y="120" width="58" height="58" rx="8" fill="#2563eb" opacity="0.1"/><rect x="340" y="120" width="58" height="58" rx="8" fill="#2563eb" opacity="0.1"/><rect x="486" y="120" width="58" height="58" rx="8" fill="#2563eb" opacity="0.1"/><rect x="632" y="120" width="58" height="58" rx="8" fill="#ef4444" opacity="0.1"/><rect x="778" y="120" width="58" height="58" rx="8" fill="#2563eb" opacity="0.1"/><rect x="924" y="120" width="58" height="58" rx="8" fill="#2563eb" opacity="0.1"/><rect x="48" y="228" width="58" height="58" rx="8" fill="#2563eb" opacity="0.1"/><rect x="194" y="228" width="58" height="58" rx="8" fill="#ef4444" opacity="0.1"/><rect x="340" y="228" width="58" height="58" rx="8" fill="#2563eb" opacity="0.1"/><rect x="486" y="228" width="58" height="58" rx="8" fill="#2563eb" opacity="0.1"/><rect x="632" y="228" width="58" height="58" rx="8" fill="#2563eb" opacity="0.1"/><rect x="778" y="228" width="58" height="58" rx="8" fill="#ef4444" opacity="0.1"/><rect x="924" y="228" width="58" height="58" rx="8" fill="#2563eb" opacity="0.1"/><rect x="48" y="336" width="58" height="58" rx="8" fill="#2563eb" opacity="0.1"/><rect x="194" y="336" width="58" height="58" rx="8" fill="#2563eb" opacity="0.1"/><rect x="340" y="336" width="58" height="58" rx="8" fill="#ef4444" opacity="0.1"/><rect x="486" y="336" width="58" height="58" rx="8" fill="#2563eb" opacity="0.1"/><rect x="632" y="336" width="58" height="58" rx="8" fill="#2563eb" opacity="0.1"/><rect x="778" y="336" width="58" height="58" rx="8" fill="#2563eb" opacity="0.1"/><rect x="924" y="336" width="58" height="58" rx="8" fill="#ef4444" opacity="0.1"/><rect x="48" y="444" width="58" height="58" rx="8" fill="#2563eb" opacity="0.1"/><rect x="194" y="444" width="58" height="58" rx="8" fill="#2563eb" opacity="0.1"/><rect x="340" y="444" width="58" height="58" rx="8" fill="#2563eb" opacity="0.1"/><rect x="486" y="444" width="58" height="58" rx="8" fill="#ef4444" opacity="0.1"/><rect x="632" y="444" width="58" height="58" rx="8" fill="#2563eb" opacity="0.1"/><rect x="778" y="444" width="58" height="58" rx="8" fill="#2563eb" opacity="0.1"/><rect x="924" y="444" width="58" height="58" rx="8" fill="#2563eb" opacity="0.1"/><rect x="48" y="552" width="58" height="58" rx="8" fill="#ef4444" opacity="0.1"/><rect x="194" y="552" width="58" height="58" rx="8" fill="#2563eb" opacity="0.1"/><rect x="340" y="552" width="58" height="58" rx="8" fill="#2563eb" opacity="0.1"/><rect x="486" y="552" width="58" height="58" rx="8" fill="#2563eb" opacity="0.1"/><rect x="632" y="552" width="58" height="58" rx="8" fill="#ef4444" opacity="0.1"/><rect x="778" y="552" width="58" height="58" rx="8" fill="#2563eb" opacity="0.1"/><rect x="924" y="552" width="58" height="58" rx="8" fill="#2563eb" opacity="0.1"/><rect x="48" y="660" width="58" height="58" rx="8" fill="#2563eb" opacity="0.1"/><rect x="194" y="660" width="58" height="58" rx="8" fill="#ef4444" opacity="0.1"/><rect x="340" y="660" width="58" height="58" rx="8" fill="#2563eb" opacity="0.1"/><rect x="486" y="660" width="58" height="58" rx="8" fill="#2563eb" opacity="0.1"/><rect x="632" y="660" width="58" height="58" rx="8" fill="#2563eb" opacity="0.1"/><rect x="778" y="660" width="58" height="58" rx="8" fill="#ef4444" opacity="0.1"/><rect x="924" y="660" width="58" height="58" rx="8" fill="#2563eb" opacity="0.1"/>

<text x="72" y="92" font-family="Pretendard, Noto Sans KR, Apple SD Gothic Neo, Malgun Gothic, Arial, sans-serif" font-size="24" font-weight="900" fill="#ffffffd9">@trlab.insight · 02</text>
<text x="72" y="184" font-family="Pretendard, Noto Sans KR, Apple SD Gothic Neo, Malgun Gothic, Arial, sans-serif" font-size="25" font-weight="900" fill="#2563eb">MARKET SIZE</text>
<text x="72" y="318" font-family="Pretendard, Noto Sans KR, Apple SD Gothic Neo, Malgun Gothic, Arial, sans-serif" font-size="68" font-weight="900" fill="#07111f">숫자는 이미</text><text x="72" y="402" font-family="Pretendard, Noto Sans KR, Apple SD Gothic Neo, Malgun Gothic, Arial, sans-serif" font-size="68" font-weight="900" fill="#07111f">방향을 말하고</text><text x="72" y="486" font-family="Pretendard, Noto Sans KR, Apple SD Gothic Neo, Malgun Gothic, Arial, sans-serif" font-size="68" font-weight="900" fill="#07111f">있습니다</text>
<rect x="72" y="545" width="936" height="430" rx="18" fill="#fff" stroke="#e5e7eb" stroke-width="2" filter="url(#softShadow)"/>
<text x="118" y="618" font-family="Pretendard, Noto Sans KR, Apple SD Gothic Neo, Malgun Gothic, Arial, sans-serif" font-size="30" font-weight="900" fill="#2563eb">시장 확대 흐름</text>
<line x1="140" y1="870" x2="940" y2="870" stroke="#07111f" stroke-width="4"/>
<rect x="216" y="773" width="116" height="97" rx="3" fill="#2563eb"/>
<text x="274" y="751" font-family="Pretendard, Noto Sans KR, Apple SD Gothic Neo, Malgun Gothic, Arial, sans-serif" font-size="27" text-anchor="middle" font-weight="900" fill="#2563eb">42</text>
<text x="274" y="922" font-family="Pretendard, Noto Sans KR, Apple SD Gothic Neo, Malgun Gothic, Arial, sans-serif" font-size="22" text-anchor="middle" font-weight="900" fill="#07111f">현재 관심</text><rect x="446" y="714" width="116" height="156" rx="3" fill="#2563eb"/>
<text x="504" y="692" font-family="Pretendard, Noto Sans KR, Apple SD Gothic Neo, Malgun Gothic, Arial, sans-serif" font-size="27" text-anchor="middle" font-weight="900" fill="#2563eb">68</text>
<text x="504" y="922" font-family="Pretendard, Noto Sans KR, Apple SD Gothic Neo, Malgun Gothic, Arial, sans-serif" font-size="22" text-anchor="middle" font-weight="900" fill="#07111f">수요 가속</text><rect x="676" y="640" width="116" height="230" rx="3" fill="#ef4444"/>
<text x="734" y="618" font-family="Pretendard, Noto Sans KR, Apple SD Gothic Neo, Malgun Gothic, Arial, sans-serif" font-size="27" text-anchor="middle" font-weight="900" fill="#ef4444">1238조</text>
<text x="734" y="922" font-family="Pretendard, Noto Sans KR, Apple SD Gothic Neo, Malgun Gothic, Arial, sans-serif" font-size="22" text-anchor="middle" font-weight="900" fill="#07111f">2031 전망</text>
<rect x="72" y="1022" width="936" height="226" rx="18" fill="#08111f"/>
<text x="114" y="1106" font-family="Pretendard, Noto Sans KR, Apple SD Gothic Neo, Malgun Gothic, Arial, sans-serif" font-size="34" font-weight="900" fill="#fff">AI 반도체 시장은 단기 테마보다</text><text x="114" y="1156" font-family="Pretendard, Noto Sans KR, Apple SD Gothic Neo, Malgun Gothic, Arial, sans-serif" font-size="34" font-weight="900" fill="#fff">인프라 투자 사이클로 읽어야 합니다.</text>
</svg>