<svg xmlns="http://www.w3.org/2000/svg" width="1080" height="1350" viewBox="0 0 1080 1350">
<defs>
  <linearGradient id="fadeBottom" x1="0" x2="0" y1="0" y2="1">
    <stop offset="0%" stop-color="#000000" stop-opacity="0"/>
    <stop offset="58%" stop-color="#000000" stop-opacity=".12"/>
    <stop offset="100%" stop-color="#000000" stop-opacity=".82"/>
  </linearGradient>
  <filter id="softShadow" x="-20%" y="-20%" width="140%" height="140%">
    <feDropShadow dx="0" dy="18" stdDeviation="24" flood-color="#020617" flood-opacity="0.18"/>
  </filter>
</defs>
<rect width="1080" height="1350" fill="#eef6ff"/>
<rect width="1080" height="160" fill="#08111f"/>
<path d="M60 70 V490 M30 180 H170" stroke="#38bdf8" stroke-width="2" opacity="0.18"/><path d="M152 70 V534 M122 250 H262" stroke="#2563eb" stroke-width="2" opacity="0.18"/><path d="M244 70 V578 M214 320 H354" stroke="#38bdf8" stroke-width="2" opacity="0.18"/><path d="M336 70 V490 M306 390 H446" stroke="#2563eb" stroke-width="2" opacity="0.18"/><path d="M428 70 V534 M398 180 H538" stroke="#38bdf8" stroke-width="2" opacity="0.18"/><path d="M520 70 V578 M490 250 H630" stroke="#2563eb" stroke-width="2" opacity="0.18"/><path d="M612 70 V490 M582 320 H722" stroke="#38bdf8" stroke-width="2" opacity="0.18"/><path d="M704 70 V534 M674 390 H814" stroke="#2563eb" stroke-width="2" opacity="0.18"/><path d="M796 70 V578 M766 180 H906" stroke="#38bdf8" stroke-width="2" opacity="0.18"/><path d="M888 70 V490 M858 250 H998" stroke="#2563eb" stroke-width="2" opacity="0.18"/><path d="M980 70 V534 M950 320 H1090" stroke="#38bdf8" stroke-width="2" opacity="0.18"/><path d="M1072 70 V578 M1042 390 H1182" stroke="#2563eb" stroke-width="2" opacity="0.18"/>
<rect x="48" y="120" width="58" height="58" rx="8" fill="#ef4444" opacity="0.1"/><rect x="194" y="120" width="58" height="58" rx="8" fill="#2563eb" opacity="0.1"/><rect x="340" y="120" width="58" height="58" rx="8" fill="#2563eb" opacity="0.1"/><rect x="486" y="120" width="58" height="58" rx="8" fill="#2563eb" opacity="0.1"/><rect x="632" y="120" width="58" height="58" rx="8" fill="#ef4444" opacity="0.1"/><rect x="778" y="120" width="58" height="58" rx="8" fill="#2563eb" opacity="0.1"/><rect x="924" y="120" width="58" height="58" rx="8" fill="#2563eb" opacity="0.1"/><rect x="48" y="228" width="58" height="58" rx="8" fill="#2563eb" opacity="0.1"/><rect x="194" y="228" width="58" height="58" rx="8" fill="#ef4444" opacity="0.1"/><rect x="340" y="228" width="58" height="58" rx="8" fill="#2563eb" opacity="0.1"/><rect x="486" y="228" width="58" height="58" rx="8" fill="#2563eb" opacity="0.1"/><rect x="632" y="228" width="58" height="58" rx="8" fill="#2563eb" opacity="0.1"/><rect x="778" y="228" width="58" height="58" rx="8" fill="#ef4444" opacity="0.1"/><rect x="924" y="228" width="58" height="58" rx="8" fill="#2563eb" opacity="0.1"/><rect x="48" y="336" width="58" height="58" rx="8" fill="#2563eb" opacity="0.1"/><rect x="194" y="336" width="58" height="58" rx="8" fill="#2563eb" opacity="0.1"/><rect x="340" y="336" width="58" height="58" rx="8" fill="#ef4444" opacity="0.1"/><rect x="486" y="336" width="58" height="58" rx="8" fill="#2563eb" opacity="0.1"/><rect x="632" y="336" width="58" height="58" rx="8" fill="#2563eb" opacity="0.1"/><rect x="778" y="336" width="58" height="58" rx="8" fill="#2563eb" opacity="0.1"/><rect x="924" y="336" width="58" height="58" rx="8" fill="#ef4444" opacity="0.1"/><rect x="48" y="444" width="58" height="58" rx="8" fill="#2563eb" opacity="0.1"/><rect x="194" y="444" width="58" height="58" rx="8" fill="#2563eb" opacity="0.1"/><rect x="340" y="444" width="58" height="58" rx="8" fill="#2563eb" opacity="0.1"/><rect x="486" y="444" width="58" height="58" rx="8" fill="#ef4444" opacity="0.1"/><rect x="632" y="444" width="58" height="58" rx="8" fill="#2563eb" opacity="0.1"/><rect x="778" y="444" width="58" height="58" rx="8" fill="#2563eb" opacity="0.1"/><rect x="924" y="444" width="58" height="58" rx="8" fill="#2563eb" opacity="0.1"/><rect x="48" y="552" width="58" height="58" rx="8" fill="#ef4444" opacity="0.1"/><rect x="194" y="552" width="58" height="58" rx="8" fill="#2563eb" opacity="0.1"/><rect x="340" y="552" width="58" height="58" rx="8" fill="#2563eb" opacity="0.1"/><rect x="486" y="552" width="58" height="58" rx="8" fill="#2563eb" opacity="0.1"/><rect x="632" y="552" width="58" height="58" rx="8" fill="#ef4444" opacity="0.1"/><rect x="778" y="552" width="58" height="58" rx="8" fill="#2563eb" opacity="0.1"/><rect x="924" y="552" width="58" height="58" rx="8" fill="#2563eb" opacity="0.1"/><rect x="48" y="660" width="58" height="58" rx="8" fill="#2563eb" opacity="0.1"/><rect x="194" y="660" width="58" height="58" rx="8" fill="#ef4444" opacity="0.1"/><rect x="340" y="660" width="58" height="58" rx="8" fill="#2563eb" opacity="0.1"/><rect x="486" y="660" width="58" height="58" rx="8" fill="#2563eb" opacity="0.1"/><rect x="632" y="660" width="58" height="58" rx="8" fill="#2563eb" opacity="0.1"/><rect x="778" y="660" width="58" height="58" rx="8" fill="#ef4444" opacity="0.1"/><rect x="924" y="660" width="58" height="58" rx="8" fill="#2563eb" opacity="0.1"/>

<text x="72" y="92" font-family="Pretendard, Noto Sans KR, Apple SD Gothic Neo, Malgun Gothic, Arial, sans-serif" font-size="24" font-weight="900" fill="#ffffffd9">@trlab.insight · 05</text>
<text x="72" y="184" font-family="Pretendard, Noto Sans KR, Apple SD Gothic Neo, Malgun Gothic, Arial, sans-serif" font-size="25" font-weight="900" fill="#ef4444">CHECKLIST</text>
<text x="72" y="318" font-family="Pretendard, Noto Sans KR, Apple SD Gothic Neo, Malgun Gothic, Arial, sans-serif" font-size="72" font-weight="900" fill="#07111f">체크리스트</text>
<text x="72" y="468" font-family="Pretendard, Noto Sans KR, Apple SD Gothic Neo, Malgun Gothic, Arial, sans-serif" font-size="34" font-weight="900" fill="#5a6678">AI 반도체는 “좋다”가 아니라</text><text x="72" y="516" font-family="Pretendard, Noto Sans KR, Apple SD Gothic Neo, Malgun Gothic, Arial, sans-serif" font-size="34" font-weight="900" fill="#5a6678">수요와 공급 중 어디가 더 빠른지 봐야</text><text x="72" y="564" font-family="Pretendard, Noto Sans KR, Apple SD Gothic Neo, Malgun Gothic, Arial, sans-serif" font-size="34" font-weight="900" fill="#5a6678">합니다.</text>
<rect x="72" y="610" width="936" height="88" rx="14" fill="#fff" stroke="#d1d5db" stroke-width="2"/>
<rect x="106" y="636" width="36" height="36" rx="6" fill="#ef4444"/>
<path d="M116 654 l8 9 l18 -20" stroke="#fff" stroke-width="5" fill="none" stroke-linecap="round" stroke-linejoin="round"/>
<text x="174" y="666" font-family="Pretendard, Noto Sans KR, Apple SD Gothic Neo, Malgun Gothic, Arial, sans-serif" font-size="29" font-weight="900" fill="#07111f">데이터센터 CAPEX 변화</text><rect x="72" y="732" width="936" height="88" rx="14" fill="#fff" stroke="#d1d5db" stroke-width="2"/>
<rect x="106" y="758" width="36" height="36" rx="6" fill="#ef4444"/>
<path d="M116 776 l8 9 l18 -20" stroke="#fff" stroke-width="5" fill="none" stroke-linecap="round" stroke-linejoin="round"/>
<text x="174" y="788" font-family="Pretendard, Noto Sans KR, Apple SD Gothic Neo, Malgun Gothic, Arial, sans-serif" font-size="29" font-weight="900" fill="#07111f">HBM 공급 계약</text><rect x="72" y="854" width="936" height="88" rx="14" fill="#fff" stroke="#d1d5db" stroke-width="2"/>
<rect x="106" y="880" width="36" height="36" rx="6" fill="#ef4444"/>
<path d="M116 898 l8 9 l18 -20" stroke="#fff" stroke-width="5" fill="none" stroke-linecap="round" stroke-linejoin="round"/>
<text x="174" y="910" font-family="Pretendard, Noto Sans KR, Apple SD Gothic Neo, Malgun Gothic, Arial, sans-serif" font-size="29" font-weight="900" fill="#07111f">장비사 수주 잔고</text><rect x="72" y="976" width="936" height="88" rx="14" fill="#fff" stroke="#d1d5db" stroke-width="2"/>
<rect x="106" y="1002" width="36" height="36" rx="6" fill="#ef4444"/>
<path d="M116 1020 l8 9 l18 -20" stroke="#fff" stroke-width="5" fill="none" stroke-linecap="round" stroke-linejoin="round"/>
<text x="174" y="1032" font-family="Pretendard, Noto Sans KR, Apple SD Gothic Neo, Malgun Gothic, Arial, sans-serif" font-size="29" font-weight="900" fill="#07111f">실적 전망 상향 여부</text>
</svg>