<svg xmlns="http://www.w3.org/2000/svg" width="1080" height="1350" viewBox="0 0 1080 1350">
<defs>
  <linearGradient id="fadeBottom" x1="0" x2="0" y1="0" y2="1">
    <stop offset="0%" stop-color="#000000" stop-opacity="0"/>
    <stop offset="58%" stop-color="#000000" stop-opacity=".12"/>
    <stop offset="100%" stop-color="#000000" stop-opacity=".82"/>
  </linearGradient>
  <filter id="softShadow" x="-20%" y="-20%" width="140%" height="140%">
    <feDropShadow dx="0" dy="18" stdDeviation="24" flood-color="#020617" flood-opacity="0.18"/>
  </filter>
</defs>
<rect width="1080" height="1350" fill="#f7f4ef"/>
<rect width="1080" height="160" fill="#18130f"/>
<path d="M72 150 H1008" stroke="#ffffff55" stroke-width="2"/>
<rect x="35" y="260" width="56" height="170" fill="#fff" opacity="0.08"/>
<rect x="46" y="115" width="10" height="18" fill="#f59e0b" opacity="0.16"/><rect x="46" y="167" width="10" height="18" fill="#f59e0b" opacity="0.16"/><rect x="46" y="219" width="10" height="18" fill="#f59e0b" opacity="0.16"/><rect x="46" y="271" width="10" height="18" fill="#f59e0b" opacity="0.16"/><rect x="46" y="323" width="10" height="18" fill="#f59e0b" opacity="0.16"/><rect x="117" y="204" width="56" height="226" fill="#fff" opacity="0.08"/>
<rect x="128" y="59" width="10" height="18" fill="#f59e0b" opacity="0.16"/><rect x="128" y="111" width="10" height="18" fill="#f59e0b" opacity="0.16"/><rect x="128" y="163" width="10" height="18" fill="#f59e0b" opacity="0.16"/><rect x="128" y="215" width="10" height="18" fill="#f59e0b" opacity="0.16"/><rect x="128" y="267" width="10" height="18" fill="#f59e0b" opacity="0.16"/><rect x="199" y="148" width="56" height="282" fill="#fff" opacity="0.08"/>
<rect x="210" y="3" width="10" height="18" fill="#f59e0b" opacity="0.16"/><rect x="210" y="55" width="10" height="18" fill="#f59e0b" opacity="0.16"/><rect x="210" y="107" width="10" height="18" fill="#f59e0b" opacity="0.16"/><rect x="210" y="159" width="10" height="18" fill="#f59e0b" opacity="0.16"/><rect x="210" y="211" width="10" height="18" fill="#f59e0b" opacity="0.16"/><rect x="281" y="92" width="56" height="338" fill="#fff" opacity="0.08"/>
<rect x="292" y="-53" width="10" height="18" fill="#f59e0b" opacity="0.16"/><rect x="292" y="-1" width="10" height="18" fill="#f59e0b" opacity="0.16"/><rect x="292" y="51" width="10" height="18" fill="#f59e0b" opacity="0.16"/><rect x="292" y="103" width="10" height="18" fill="#f59e0b" opacity="0.16"/><rect x="292" y="155" width="10" height="18" fill="#f59e0b" opacity="0.16"/><rect x="363" y="36" width="56" height="394" fill="#fff" opacity="0.08"/>
<rect x="374" y="-109" width="10" height="18" fill="#f59e0b" opacity="0.16"/><rect x="374" y="-57" width="10" height="18" fill="#f59e0b" opacity="0.16"/><rect x="374" y="-5" width="10" height="18" fill="#f59e0b" opacity="0.16"/><rect x="374" y="47" width="10" height="18" fill="#f59e0b" opacity="0.16"/><rect x="374" y="99" width="10" height="18" fill="#f59e0b" opacity="0.16"/><rect x="445" y="260" width="56" height="170" fill="#fff" opacity="0.08"/>
<rect x="456" y="115" width="10" height="18" fill="#f59e0b" opacity="0.16"/><rect x="456" y="167" width="10" height="18" fill="#f59e0b" opacity="0.16"/><rect x="456" y="219" width="10" height="18" fill="#f59e0b" opacity="0.16"/><rect x="456" y="271" width="10" height="18" fill="#f59e0b" opacity="0.16"/><rect x="456" y="323" width="10" height="18" fill="#f59e0b" opacity="0.16"/><rect x="527" y="204" width="56" height="226" fill="#fff" opacity="0.08"/>
<rect x="538" y="59" width="10" height="18" fill="#f59e0b" opacity="0.16"/><rect x="538" y="111" width="10" height="18" fill="#f59e0b" opacity="0.16"/><rect x="538" y="163" width="10" height="18" fill="#f59e0b" opacity="0.16"/><rect x="538" y="215" width="10" height="18" fill="#f59e0b" opacity="0.16"/><rect x="538" y="267" width="10" height="18" fill="#f59e0b" opacity="0.16"/><rect x="609" y="148" width="56" height="282" fill="#fff" opacity="0.08"/>
<rect x="620" y="3" width="10" height="18" fill="#f59e0b" opacity="0.16"/><rect x="620" y="55" width="10" height="18" fill="#f59e0b" opacity="0.16"/><rect x="620" y="107" width="10" height="18" fill="#f59e0b" opacity="0.16"/><rect x="620" y="159" width="10" height="18" fill="#f59e0b" opacity="0.16"/><rect x="620" y="211" width="10" height="18" fill="#f59e0b" opacity="0.16"/><rect x="691" y="92" width="56" height="338" fill="#fff" opacity="0.08"/>
<rect x="702" y="-53" width="10" height="18" fill="#f59e0b" opacity="0.16"/><rect x="702" y="-1" width="10" height="18" fill="#f59e0b" opacity="0.16"/><rect x="702" y="51" width="10" height="18" fill="#f59e0b" opacity="0.16"/><rect x="702" y="103" width="10" height="18" fill="#f59e0b" opacity="0.16"/><rect x="702" y="155" width="10" height="18" fill="#f59e0b" opacity="0.16"/><rect x="773" y="36" width="56" height="394" fill="#fff" opacity="0.08"/>
<rect x="784" y="-109" width="10" height="18" fill="#f59e0b" opacity="0.16"/><rect x="784" y="-57" width="10" height="18" fill="#f59e0b" opacity="0.16"/><rect x="784" y="-5" width="10" height="18" fill="#f59e0b" opacity="0.16"/><rect x="784" y="47" width="10" height="18" fill="#f59e0b" opacity="0.16"/><rect x="784" y="99" width="10" height="18" fill="#f59e0b" opacity="0.16"/><rect x="855" y="260" width="56" height="170" fill="#fff" opacity="0.08"/>
<rect x="866" y="115" width="10" height="18" fill="#f59e0b" opacity="0.16"/><rect x="866" y="167" width="10" height="18" fill="#f59e0b" opacity="0.16"/><rect x="866" y="219" width="10" height="18" fill="#f59e0b" opacity="0.16"/><rect x="866" y="271" width="10" height="18" fill="#f59e0b" opacity="0.16"/><rect x="866" y="323" width="10" height="18" fill="#f59e0b" opacity="0.16"/><rect x="937" y="204" width="56" height="226" fill="#fff" opacity="0.08"/>
<rect x="948" y="59" width="10" height="18" fill="#f59e0b" opacity="0.16"/><rect x="948" y="111" width="10" height="18" fill="#f59e0b" opacity="0.16"/><rect x="948" y="163" width="10" height="18" fill="#f59e0b" opacity="0.16"/><rect x="948" y="215" width="10" height="18" fill="#f59e0b" opacity="0.16"/><rect x="948" y="267" width="10" height="18" fill="#f59e0b" opacity="0.16"/><rect x="1019" y="148" width="56" height="282" fill="#fff" opacity="0.08"/>
<rect x="1030" y="3" width="10" height="18" fill="#f59e0b" opacity="0.16"/><rect x="1030" y="55" width="10" height="18" fill="#f59e0b" opacity="0.16"/><rect x="1030" y="107" width="10" height="18" fill="#f59e0b" opacity="0.16"/><rect x="1030" y="159" width="10" height="18" fill="#f59e0b" opacity="0.16"/><rect x="1030" y="211" width="10" height="18" fill="#f59e0b" opacity="0.16"/>

<text x="72" y="92" font-family="Pretendard, Noto Sans KR, Apple SD Gothic Neo, Malgun Gothic, Arial, sans-serif" font-size="24" font-weight="900" fill="#ffffffd9">@trlab.insight · 04</text>
<text x="72" y="184" font-family="Pretendard, Noto Sans KR, Apple SD Gothic Neo, Malgun Gothic, Arial, sans-serif" font-size="25" font-weight="900" fill="#111827">DATA SIGNAL</text>
<text x="72" y="318" font-family="Pretendard, Noto Sans KR, Apple SD Gothic Neo, Malgun Gothic, Arial, sans-serif" font-size="68" font-weight="900" fill="#151515">도입 경쟁은</text><text x="72" y="402" font-family="Pretendard, Noto Sans KR, Apple SD Gothic Neo, Malgun Gothic, Arial, sans-serif" font-size="68" font-weight="900" fill="#151515">세 신호로 읽습니다</text>
<rect x="72" y="545" width="936" height="430" rx="18" fill="#fff" stroke="#e5e7eb" stroke-width="2" filter="url(#softShadow)"/>
<text x="118" y="618" font-family="Pretendard, Noto Sans KR, Apple SD Gothic Neo, Malgun Gothic, Arial, sans-serif" font-size="30" font-weight="900" fill="#111827">AX 확산 신호</text>
<line x1="140" y1="870" x2="940" y2="870" stroke="#151515" stroke-width="4"/>
<rect x="216" y="656" width="116" height="214" rx="3" fill="#111827"/>
<text x="274" y="634" font-family="Pretendard, Noto Sans KR, Apple SD Gothic Neo, Malgun Gothic, Arial, sans-serif" font-size="27" text-anchor="middle" font-weight="900" fill="#111827">82</text>
<text x="274" y="922" font-family="Pretendard, Noto Sans KR, Apple SD Gothic Neo, Malgun Gothic, Arial, sans-serif" font-size="22" text-anchor="middle" font-weight="900" fill="#151515">기업 수요</text><rect x="446" y="677" width="116" height="193" rx="3" fill="#111827"/>
<text x="504" y="655" font-family="Pretendard, Noto Sans KR, Apple SD Gothic Neo, Malgun Gothic, Arial, sans-serif" font-size="27" text-anchor="middle" font-weight="900" fill="#111827">74</text>
<text x="504" y="922" font-family="Pretendard, Noto Sans KR, Apple SD Gothic Neo, Malgun Gothic, Arial, sans-serif" font-size="22" text-anchor="middle" font-weight="900" fill="#151515">교육 필요</text><rect x="676" y="640" width="116" height="230" rx="3" fill="#c2410c"/>
<text x="734" y="618" font-family="Pretendard, Noto Sans KR, Apple SD Gothic Neo, Malgun Gothic, Arial, sans-serif" font-size="27" text-anchor="middle" font-weight="900" fill="#c2410c">88</text>
<text x="734" y="922" font-family="Pretendard, Noto Sans KR, Apple SD Gothic Neo, Malgun Gothic, Arial, sans-serif" font-size="22" text-anchor="middle" font-weight="900" fill="#151515">컨설팅 시장</text>
<rect x="72" y="1022" width="936" height="226" rx="18" fill="#18130f"/>
<text x="114" y="1106" font-family="Pretendard, Noto Sans KR, Apple SD Gothic Neo, Malgun Gothic, Arial, sans-serif" font-size="34" font-weight="900" fill="#fff">기업 AI 도입은 기술 뉴스가 아니라</text><text x="114" y="1156" font-family="Pretendard, Noto Sans KR, Apple SD Gothic Neo, Malgun Gothic, Arial, sans-serif" font-size="34" font-weight="900" fill="#fff">교육, 운영, 책임 체계까지 묶인 시장</text><text x="114" y="1206" font-family="Pretendard, Noto Sans KR, Apple SD Gothic Neo, Malgun Gothic, Arial, sans-serif" font-size="34" font-weight="900" fill="#fff">경쟁입니다.</text>
</svg>