<svg xmlns="http://www.w3.org/2000/svg" width="1080" height="1350" viewBox="0 0 1080 1350">
<defs>
  <linearGradient id="fadeBottom" x1="0" x2="0" y1="0" y2="1">
    <stop offset="0%" stop-color="#000000" stop-opacity="0"/>
    <stop offset="58%" stop-color="#000000" stop-opacity=".12"/>
    <stop offset="100%" stop-color="#000000" stop-opacity=".82"/>
  </linearGradient>
  <filter id="softShadow" x="-20%" y="-20%" width="140%" height="140%">
    <feDropShadow dx="0" dy="18" stdDeviation="24" flood-color="#020617" flood-opacity="0.18"/>
  </filter>
</defs>
<rect width="1080" height="1350" fill="#f7f4ef"/>
<rect width="1080" height="160" fill="#18130f"/>
<path d="M72 150 H1008" stroke="#ffffff55" stroke-width="2"/>
<rect x="35" y="260" width="56" height="170" fill="#fff" opacity="0.08"/>
<rect x="46" y="115" width="10" height="18" fill="#f59e0b" opacity="0.16"/><rect x="46" y="167" width="10" height="18" fill="#f59e0b" opacity="0.16"/><rect x="46" y="219" width="10" height="18" fill="#f59e0b" opacity="0.16"/><rect x="46" y="271" width="10" height="18" fill="#f59e0b" opacity="0.16"/><rect x="46" y="323" width="10" height="18" fill="#f59e0b" opacity="0.16"/><rect x="117" y="204" width="56" height="226" fill="#fff" opacity="0.08"/>
<rect x="128" y="59" width="10" height="18" fill="#f59e0b" opacity="0.16"/><rect x="128" y="111" width="10" height="18" fill="#f59e0b" opacity="0.16"/><rect x="128" y="163" width="10" height="18" fill="#f59e0b" opacity="0.16"/><rect x="128" y="215" width="10" height="18" fill="#f59e0b" opacity="0.16"/><rect x="128" y="267" width="10" height="18" fill="#f59e0b" opacity="0.16"/><rect x="199" y="148" width="56" height="282" fill="#fff" opacity="0.08"/>
<rect x="210" y="3" width="10" height="18" fill="#f59e0b" opacity="0.16"/><rect x="210" y="55" width="10" height="18" fill="#f59e0b" opacity="0.16"/><rect x="210" y="107" width="10" height="18" fill="#f59e0b" opacity="0.16"/><rect x="210" y="159" width="10" height="18" fill="#f59e0b" opacity="0.16"/><rect x="210" y="211" width="10" height="18" fill="#f59e0b" opacity="0.16"/><rect x="281" y="92" width="56" height="338" fill="#fff" opacity="0.08"/>
<rect x="292" y="-53" width="10" height="18" fill="#f59e0b" opacity="0.16"/><rect x="292" y="-1" width="10" height="18" fill="#f59e0b" opacity="0.16"/><rect x="292" y="51" width="10" height="18" fill="#f59e0b" opacity="0.16"/><rect x="292" y="103" width="10" height="18" fill="#f59e0b" opacity="0.16"/><rect x="292" y="155" width="10" height="18" fill="#f59e0b" opacity="0.16"/><rect x="363" y="36" width="56" height="394" fill="#fff" opacity="0.08"/>
<rect x="374" y="-109" width="10" height="18" fill="#f59e0b" opacity="0.16"/><rect x="374" y="-57" width="10" height="18" fill="#f59e0b" opacity="0.16"/><rect x="374" y="-5" width="10" height="18" fill="#f59e0b" opacity="0.16"/><rect x="374" y="47" width="10" height="18" fill="#f59e0b" opacity="0.16"/><rect x="374" y="99" width="10" height="18" fill="#f59e0b" opacity="0.16"/><rect x="445" y="260" width="56" height="170" fill="#fff" opacity="0.08"/>
<rect x="456" y="115" width="10" height="18" fill="#f59e0b" opacity="0.16"/><rect x="456" y="167" width="10" height="18" fill="#f59e0b" opacity="0.16"/><rect x="456" y="219" width="10" height="18" fill="#f59e0b" opacity="0.16"/><rect x="456" y="271" width="10" height="18" fill="#f59e0b" opacity="0.16"/><rect x="456" y="323" width="10" height="18" fill="#f59e0b" opacity="0.16"/><rect x="527" y="204" width="56" height="226" fill="#fff" opacity="0.08"/>
<rect x="538" y="59" width="10" height="18" fill="#f59e0b" opacity="0.16"/><rect x="538" y="111" width="10" height="18" fill="#f59e0b" opacity="0.16"/><rect x="538" y="163" width="10" height="18" fill="#f59e0b" opacity="0.16"/><rect x="538" y="215" width="10" height="18" fill="#f59e0b" opacity="0.16"/><rect x="538" y="267" width="10" height="18" fill="#f59e0b" opacity="0.16"/><rect x="609" y="148" width="56" height="282" fill="#fff" opacity="0.08"/>
<rect x="620" y="3" width="10" height="18" fill="#f59e0b" opacity="0.16"/><rect x="620" y="55" width="10" height="18" fill="#f59e0b" opacity="0.16"/><rect x="620" y="107" width="10" height="18" fill="#f59e0b" opacity="0.16"/><rect x="620" y="159" width="10" height="18" fill="#f59e0b" opacity="0.16"/><rect x="620" y="211" width="10" height="18" fill="#f59e0b" opacity="0.16"/><rect x="691" y="92" width="56" height="338" fill="#fff" opacity="0.08"/>
<rect x="702" y="-53" width="10" height="18" fill="#f59e0b" opacity="0.16"/><rect x="702" y="-1" width="10" height="18" fill="#f59e0b" opacity="0.16"/><rect x="702" y="51" width="10" height="18" fill="#f59e0b" opacity="0.16"/><rect x="702" y="103" width="10" height="18" fill="#f59e0b" opacity="0.16"/><rect x="702" y="155" width="10" height="18" fill="#f59e0b" opacity="0.16"/><rect x="773" y="36" width="56" height="394" fill="#fff" opacity="0.08"/>
<rect x="784" y="-109" width="10" height="18" fill="#f59e0b" opacity="0.16"/><rect x="784" y="-57" width="10" height="18" fill="#f59e0b" opacity="0.16"/><rect x="784" y="-5" width="10" height="18" fill="#f59e0b" opacity="0.16"/><rect x="784" y="47" width="10" height="18" fill="#f59e0b" opacity="0.16"/><rect x="784" y="99" width="10" height="18" fill="#f59e0b" opacity="0.16"/><rect x="855" y="260" width="56" height="170" fill="#fff" opacity="0.08"/>
<rect x="866" y="115" width="10" height="18" fill="#f59e0b" opacity="0.16"/><rect x="866" y="167" width="10" height="18" fill="#f59e0b" opacity="0.16"/><rect x="866" y="219" width="10" height="18" fill="#f59e0b" opacity="0.16"/><rect x="866" y="271" width="10" height="18" fill="#f59e0b" opacity="0.16"/><rect x="866" y="323" width="10" height="18" fill="#f59e0b" opacity="0.16"/><rect x="937" y="204" width="56" height="226" fill="#fff" opacity="0.08"/>
<rect x="948" y="59" width="10" height="18" fill="#f59e0b" opacity="0.16"/><rect x="948" y="111" width="10" height="18" fill="#f59e0b" opacity="0.16"/><rect x="948" y="163" width="10" height="18" fill="#f59e0b" opacity="0.16"/><rect x="948" y="215" width="10" height="18" fill="#f59e0b" opacity="0.16"/><rect x="948" y="267" width="10" height="18" fill="#f59e0b" opacity="0.16"/><rect x="1019" y="148" width="56" height="282" fill="#fff" opacity="0.08"/>
<rect x="1030" y="3" width="10" height="18" fill="#f59e0b" opacity="0.16"/><rect x="1030" y="55" width="10" height="18" fill="#f59e0b" opacity="0.16"/><rect x="1030" y="107" width="10" height="18" fill="#f59e0b" opacity="0.16"/><rect x="1030" y="159" width="10" height="18" fill="#f59e0b" opacity="0.16"/><rect x="1030" y="211" width="10" height="18" fill="#f59e0b" opacity="0.16"/>

<text x="72" y="92" font-family="Pretendard, Noto Sans KR, Apple SD Gothic Neo, Malgun Gothic, Arial, sans-serif" font-size="24" font-weight="900" fill="#ffffffd9">@trlab.insight · 05</text>
<text x="72" y="184" font-family="Pretendard, Noto Sans KR, Apple SD Gothic Neo, Malgun Gothic, Arial, sans-serif" font-size="25" font-weight="900" fill="#c2410c">ACTION</text>
<text x="72" y="318" font-family="Pretendard, Noto Sans KR, Apple SD Gothic Neo, Malgun Gothic, Arial, sans-serif" font-size="72" font-weight="900" fill="#151515">실무자가 볼 기준</text>
<text x="72" y="468" font-family="Pretendard, Noto Sans KR, Apple SD Gothic Neo, Malgun Gothic, Arial, sans-serif" font-size="34" font-weight="900" fill="#61584f">우리 회사가 AI를 “쓴다”고 말하기</text><text x="72" y="516" font-family="Pretendard, Noto Sans KR, Apple SD Gothic Neo, Malgun Gothic, Arial, sans-serif" font-size="34" font-weight="900" fill="#61584f">전에</text><text x="72" y="564" font-family="Pretendard, Noto Sans KR, Apple SD Gothic Neo, Malgun Gothic, Arial, sans-serif" font-size="34" font-weight="900" fill="#61584f">업무 단위로 바뀐 것이 있는지 먼저 봐야</text>
<rect x="72" y="610" width="936" height="88" rx="14" fill="#fff" stroke="#d1d5db" stroke-width="2"/>
<rect x="106" y="636" width="36" height="36" rx="6" fill="#c2410c"/>
<path d="M116 654 l8 9 l18 -20" stroke="#fff" stroke-width="5" fill="none" stroke-linecap="round" stroke-linejoin="round"/>
<text x="174" y="666" font-family="Pretendard, Noto Sans KR, Apple SD Gothic Neo, Malgun Gothic, Arial, sans-serif" font-size="29" font-weight="900" fill="#151515">반복 업무가 줄었는가</text><rect x="72" y="732" width="936" height="88" rx="14" fill="#fff" stroke="#d1d5db" stroke-width="2"/>
<rect x="106" y="758" width="36" height="36" rx="6" fill="#c2410c"/>
<path d="M116 776 l8 9 l18 -20" stroke="#fff" stroke-width="5" fill="none" stroke-linecap="round" stroke-linejoin="round"/>
<text x="174" y="788" font-family="Pretendard, Noto Sans KR, Apple SD Gothic Neo, Malgun Gothic, Arial, sans-serif" font-size="29" font-weight="900" fill="#151515">현업 교육이 설계됐는가</text><rect x="72" y="854" width="936" height="88" rx="14" fill="#fff" stroke="#d1d5db" stroke-width="2"/>
<rect x="106" y="880" width="36" height="36" rx="6" fill="#c2410c"/>
<path d="M116 898 l8 9 l18 -20" stroke="#fff" stroke-width="5" fill="none" stroke-linecap="round" stroke-linejoin="round"/>
<text x="174" y="910" font-family="Pretendard, Noto Sans KR, Apple SD Gothic Neo, Malgun Gothic, Arial, sans-serif" font-size="29" font-weight="900" fill="#151515">성과 지표가 정해졌는가</text><rect x="72" y="976" width="936" height="88" rx="14" fill="#fff" stroke="#d1d5db" stroke-width="2"/>
<rect x="106" y="1002" width="36" height="36" rx="6" fill="#c2410c"/>
<path d="M116 1020 l8 9 l18 -20" stroke="#fff" stroke-width="5" fill="none" stroke-linecap="round" stroke-linejoin="round"/>
<text x="174" y="1032" font-family="Pretendard, Noto Sans KR, Apple SD Gothic Neo, Malgun Gothic, Arial, sans-serif" font-size="29" font-weight="900" fill="#151515">보안과 책임 기준이 있는가</text>
</svg>